<svg preserveAspectRatio="none" width="100%" height="100%" overflow="visible" style="display: block;" viewBox="0 0 20 20" fill="none" xmlns="http://www.w3.org/2000/svg">
<g id="groups">
<mask id="mask0_743_9589" style="mask-type:alpha" maskUnits="userSpaceOnUse" x="0" y="0" width="20" height="20">
<rect id="Bounding box" width="20" height="20" fill="var(--fill-0, #4FD1C5)"/>
</mask>
<g mask="url(#mask0_743_9589)">
<path id="groups_2" d="M1 14.5V13.3125C1 12.7708 1.27083 12.3333 1.8125 12C2.35417 11.6667 3.08333 11.5 4 11.5C4.19444 11.5 4.375 11.5069 4.54167 11.5208C4.70833 11.5347 4.86806 11.5556 5.02083 11.5833C4.85417 11.8333 4.72569 12.1049 4.63542 12.3981C4.54514 12.6915 4.5 12.9893 4.5 13.2917V14.5H1ZM5.5 14.5V13.2917C5.5 12.9028 5.60069 12.5556 5.80208 12.25C6.00347 11.9444 6.30556 11.6736 6.70833 11.4375C7.11111 11.2014 7.59028 11.0278 8.14583 10.9167C8.70139 10.8056 9.32292 10.75 10.0104 10.75C10.6979 10.75 11.316 10.8056 11.8646 10.9167C12.4132 11.0278 12.8889 11.2014 13.2917 11.4375C13.6944 11.6597 13.9965 11.9284 14.1979 12.2435C14.3993 12.5587 14.5 12.9081 14.5 13.2917V14.5H5.5ZM15.5 14.5V13.2917C15.5 12.9861 15.4549 12.691 15.3646 12.4062C15.2743 12.1215 15.1458 11.8472 14.9792 11.5833C15.1042 11.5556 15.2465 11.5347 15.4062 11.5208C15.566 11.5069 15.7639 11.5 16 11.5C16.9167 11.5 17.6458 11.6667 18.1875 12C18.7292 12.3333 19 12.7708 19 13.3125V14.5H15.5ZM4 10.5C3.58333 10.5 3.22917 10.3542 2.9375 10.0625C2.64583 9.77083 2.5 9.41667 2.5 9C2.5 8.58333 2.64583 8.22917 2.9375 7.9375C3.22917 7.64583 3.58333 7.5 4 7.5C4.41667 7.5 4.77083 7.64583 5.0625 7.9375C5.35417 8.22917 5.5 8.58333 5.5 9C5.5 9.41667 5.35417 9.77083 5.0625 10.0625C4.77083 10.3542 4.41667 10.5 4 10.5ZM16 10.5C15.5833 10.5 15.2292 10.3542 14.9375 10.0625C14.6458 9.77083 14.5 9.41667 14.5 9C14.5 8.58333 14.6458 8.22917 14.9375 7.9375C15.2292 7.64583 15.5833 7.5 16 7.5C16.4167 7.5 16.7708 7.64583 17.0625 7.9375C17.3542 8.22917 17.5 8.58333 17.5 9C17.5 9.41667 17.3542 9.77083 17.0625 10.0625C16.7708 10.3542 16.4167 10.5 16 10.5ZM10 9.75C9.375 9.75 8.84375 9.53111 8.40625 9.09333C7.96875 8.65556 7.75 8.12396 7.75 7.49854C7.75 6.87451 7.96889 6.34375 8.40667 5.90625C8.84444 5.46875 9.37604 5.25 10.0015 5.25C10.6255 5.25 11.1562 5.4691 11.5937 5.90729C12.0312 6.34549 12.25 6.87639 12.25 7.5C12.25 8.125 12.0309 8.65625 11.5927 9.09375C11.1545 9.53125 10.6236 9.75 10 9.75Z" fill="var(--fill-0, #1A97A4)"/>
</g>
</g>
</svg>
