<svg preserveAspectRatio="none" width="100%" height="100%" overflow="visible" style="display: block;" viewBox="0 0 17 12" fill="none" xmlns="http://www.w3.org/2000/svg">
<path id="Wifi" d="M6.11523 8.91895C7.5351 7.69315 9.61531 7.69312 11.0352 8.91895C11.1066 8.98488 11.1474 9.07849 11.1494 9.17676C11.1514 9.27502 11.1136 9.36964 11.0449 9.43848L8.82227 11.7285C8.75712 11.7958 8.66787 11.834 8.5752 11.834C8.48248 11.834 8.3933 11.7958 8.32812 11.7285L6.10449 9.43848C6.03594 9.36962 5.99802 9.27491 6 9.17676C6.00204 9.07847 6.04375 8.98483 6.11523 8.91895ZM3.10938 6.17871C6.16845 3.27412 10.9058 3.27413 13.9648 6.17871C14.0339 6.24682 14.0732 6.34046 14.0742 6.43848C14.0751 6.53632 14.0383 6.63077 13.9707 6.7002L12.6855 8.02539C12.5532 8.16063 12.339 8.16366 12.2031 8.03223C11.1986 7.10371 9.89133 6.58879 8.53613 6.58887C7.18182 6.58944 5.87596 7.10432 4.87207 8.03223C4.73619 8.16386 4.52205 8.1607 4.38965 8.02539L3.10449 6.7002C3.03676 6.63085 2.99919 6.53639 3 6.43848C3.00091 6.34057 3.04046 6.2468 3.10938 6.17871ZM0.107422 3.44238C4.79934 -1.1474 12.2016 -1.1474 16.8936 3.44238C16.9613 3.51055 16.9994 3.60404 17 3.70117C17.0004 3.79807 16.9633 3.89111 16.8965 3.95996L15.6094 5.28613C15.4768 5.42204 15.2615 5.42386 15.127 5.29004C13.3394 3.55535 10.9674 2.58809 8.50098 2.58789C6.03418 2.58788 3.66089 3.55516 1.87305 5.29004C1.73859 5.42371 1.524 5.42194 1.3916 5.28613L0.104492 3.95996C0.0374107 3.89092 -0.00062672 3.79743 0 3.7002C0.000738782 3.60312 0.0395663 3.51042 0.107422 3.44238Z" fill="var(--fill-0, black)"/>
</svg>
