<svg preserveAspectRatio="none" width="100%" height="100%" overflow="visible" style="display: block;" viewBox="0 0 20 20" fill="none" xmlns="http://www.w3.org/2000/svg">
<g id="person_raised_hand">
<mask id="mask0_743_9585" style="mask-type:alpha" maskUnits="userSpaceOnUse" x="0" y="0" width="20" height="20">
<rect id="Bounding box" width="20" height="20" fill="var(--fill-0, #4FD1C5)"/>
</mask>
<g mask="url(#mask0_743_9585)">
<path id="person_raised_hand_2" d="M1 19V17.5H19V19H1ZM4 16V11.5C3.61111 10.7917 3.29514 10.0625 3.05208 9.3125C2.80903 8.5625 2.6875 7.79167 2.6875 7C2.6875 6.11486 2.80208 5.24431 3.03125 4.38833C3.26042 3.53222 3.5 2.67361 3.75 1.8125C3.81944 1.57639 3.95764 1.38194 4.16458 1.22917C4.37139 1.07639 4.60125 1 4.85417 1C5.16986 1 5.43979 1.11111 5.66396 1.33333C5.88799 1.55556 6 1.82639 6 2.14583V4.64583C6 5.25694 6.10417 5.82639 6.3125 6.35417C6.52083 6.88194 6.80903 7.34375 7.17708 7.73958C7.54514 8.13542 7.9791 8.44549 8.47896 8.66979C8.97882 8.8941 9.52139 9.00625 10.1067 9.00625C10.8381 9.00625 11.5726 9.07813 12.3102 9.22188C13.0478 9.36563 13.6954 9.58222 14.2529 9.87167C14.8106 10.1611 15.2411 10.5292 15.5446 10.9758C15.8482 11.4225 16 11.9653 16 12.6042V16H8.75V14.75C8.75 14.4086 8.86979 14.1149 9.10937 13.869C9.34896 13.623 9.64583 13.5 10 13.5H13V12H10C9.23611 12 8.58333 12.2674 8.04167 12.8021C7.5 13.3368 7.22917 13.9861 7.22917 14.75V16H4ZM10 8C9.16667 8 8.45833 7.70833 7.875 7.125C7.29167 6.54167 7 5.83333 7 5C7 4.16667 7.29167 3.45833 7.875 2.875C8.45833 2.29167 9.16667 2 10 2C10.8333 2 11.5417 2.29167 12.125 2.875C12.7083 3.45833 13 4.16667 13 5C13 5.83333 12.7083 6.54167 12.125 7.125C11.5417 7.70833 10.8333 8 10 8Z" fill="var(--fill-0, #1A97A4)"/>
</g>
</g>
</svg>
