<svg preserveAspectRatio="none" width="100%" height="100%" overflow="visible" style="display: block;" viewBox="0 0 65 82" fill="none" xmlns="http://www.w3.org/2000/svg">
<g id="Vector" style="mix-blend-mode:lighten" filter="url(#filter0_ii_431_8477)">
<path fill-rule="evenodd" clip-rule="evenodd" d="M62.2055 16.7312C63.5766 17.2868 65.0193 16.1054 64.745 14.6517L62.2682 1.52467C62.0157 0.186487 60.4631 -0.441494 59.3513 0.344861L48.4544 8.05195C47.2472 8.90575 47.462 10.7567 48.8325 11.3115L51.1823 12.2626L46.9463 22.9C42.8856 14.7895 34.4721 9.22435 24.8024 9.22435C11.1012 9.22435 0 20.3255 0 34.0158C0 40.1104 2.19102 45.6866 5.84272 50.0029L16.9514 34.1505C17.5263 33.3301 18.703 33.2285 19.4099 33.9383L25.6119 40.1651C26.3901 40.9464 27.7057 40.7315 28.1949 39.7433L34.9148 26.1682C35.4016 25.1848 36.7082 24.9661 37.4887 25.7375L47.8227 35.9512L49.4879 31.7773L56.3823 14.3696L62.2055 16.7312Z" fill="url(#paint0_linear_431_8477)"/>
<path d="M37.744 54.1828C37.744 53.6232 38.0369 53.107 38.5029 52.7971C41.7277 50.6524 44.4077 47.7771 46.3328 44.4048L39.8568 38.0256C39.0752 37.2558 37.7694 37.4762 37.2839 38.4599L30.5316 52.1395C30.0429 53.1294 28.7256 53.3449 27.9471 52.5622L20.5485 45.1245C19.8419 44.4142 18.6651 44.515 18.0897 45.3351L11.5686 54.6296V59.4681C11.5686 62.5659 14.0798 65.0771 17.1776 65.0771H32.135C35.2328 65.0771 37.744 62.5659 37.744 59.4681V54.1828Z" fill="url(#paint1_linear_431_8477)"/>
<path d="M16.272 68.5536C16.272 67.648 17.0061 66.9139 17.9116 66.9139H32.2774C33.1829 66.9139 33.917 67.648 33.917 68.5536C33.917 69.4591 33.1829 70.1932 32.2774 70.1932H17.9116C17.0061 70.1932 16.272 69.4591 16.272 68.5536Z" fill="url(#paint2_linear_431_8477)"/>
<path d="M16.272 73.1398C16.272 72.2342 17.0061 71.5002 17.9116 71.5002H32.2774C33.1829 71.5002 33.917 72.2342 33.917 73.1398C33.917 74.0453 33.1829 74.7794 32.2774 74.7794H17.9116C17.0061 74.7794 16.272 74.0453 16.272 73.1398Z" fill="url(#paint3_linear_431_8477)"/>
<path d="M24.7731 81.9882C28.0323 81.9882 30.6743 79.3461 30.6743 76.087H18.872C18.872 79.3461 21.514 81.9882 24.7731 81.9882Z" fill="url(#paint4_linear_431_8477)"/>
</g>
<defs>
<filter id="filter0_ii_431_8477" x="0" y="-1.60959" width="64.7788" height="84.8854" filterUnits="userSpaceOnUse" color-interpolation-filters="sRGB">
<feFlood flood-opacity="0" result="BackgroundImageFix"/>
<feBlend mode="normal" in="SourceGraphic" in2="BackgroundImageFix" result="shape"/>
<feColorMatrix in="SourceAlpha" type="matrix" values="0 0 0 0 0 0 0 0 0 0 0 0 0 0 0 0 0 0 127 0" result="hardAlpha"/>
<feOffset dy="1.28767"/>
<feGaussianBlur stdDeviation="0.804794"/>
<feComposite in2="hardAlpha" operator="arithmetic" k2="-1" k3="1"/>
<feColorMatrix type="matrix" values="0 0 0 0 1 0 0 0 0 1 0 0 0 0 1 0 0 0 0.95 0"/>
<feBlend mode="normal" in2="shape" result="effect1_innerShadow_431_8477"/>
<feColorMatrix in="SourceAlpha" type="matrix" values="0 0 0 0 0 0 0 0 0 0 0 0 0 0 0 0 0 0 127 0" result="hardAlpha"/>
<feOffset dy="-1.60959"/>
<feGaussianBlur stdDeviation="0.965753"/>
<feComposite in2="hardAlpha" operator="arithmetic" k2="-1" k3="1"/>
<feColorMatrix type="matrix" values="0 0 0 0 0.19205 0 0 0 0 0.542839 0 0 0 0 0.425909 0 0 0 0.36 0"/>
<feBlend mode="normal" in2="effect1_innerShadow_431_8477" result="effect2_innerShadow_431_8477"/>
</filter>
<linearGradient id="paint0_linear_431_8477" x1="11.1983" y1="13.2608" x2="32.3894" y2="81.9882" gradientUnits="userSpaceOnUse">
<stop stop-color="#EDDA76"/>
<stop offset="1" stop-color="#94E093"/>
</linearGradient>
<linearGradient id="paint1_linear_431_8477" x1="11.1983" y1="13.2608" x2="32.3894" y2="81.9882" gradientUnits="userSpaceOnUse">
<stop stop-color="#EDDA76"/>
<stop offset="1" stop-color="#94E093"/>
</linearGradient>
<linearGradient id="paint2_linear_431_8477" x1="11.1983" y1="13.2608" x2="32.3894" y2="81.9882" gradientUnits="userSpaceOnUse">
<stop stop-color="#EDDA76"/>
<stop offset="1" stop-color="#94E093"/>
</linearGradient>
<linearGradient id="paint3_linear_431_8477" x1="11.1983" y1="13.2608" x2="32.3894" y2="81.9882" gradientUnits="userSpaceOnUse">
<stop stop-color="#EDDA76"/>
<stop offset="1" stop-color="#94E093"/>
</linearGradient>
<linearGradient id="paint4_linear_431_8477" x1="11.1983" y1="13.2608" x2="32.3894" y2="81.9882" gradientUnits="userSpaceOnUse">
<stop stop-color="#EDDA76"/>
<stop offset="1" stop-color="#94E093"/>
</linearGradient>
</defs>
</svg>
