<svg preserveAspectRatio="none" width="100%" height="100%" overflow="visible" style="display: block;" viewBox="0 0 20 20" fill="none" xmlns="http://www.w3.org/2000/svg">
<g id="handshake">
<mask id="mask0_743_9597" style="mask-type:alpha" maskUnits="userSpaceOnUse" x="0" y="0" width="20" height="20">
<rect id="Bounding box" width="20" height="20" fill="var(--fill-0, #4FD1C5)"/>
</mask>
<g mask="url(#mask0_743_9597)">
<path id="handshake_2" d="M10 17C9.77778 17 9.59028 16.9236 9.4375 16.7708C9.28472 16.6181 9.20833 16.4306 9.20833 16.2083C9.20833 16.0972 9.22917 15.9931 9.27083 15.8958C9.3125 15.7986 9.36806 15.7153 9.4375 15.6458L13.2292 11.8542L12.6667 11.2917L8.875 15.0625C8.80556 15.1319 8.72222 15.191 8.625 15.2396C8.52778 15.2882 8.42361 15.3125 8.3125 15.3125C8.07639 15.3125 7.88194 15.2361 7.72917 15.0833C7.57639 14.9306 7.5 14.7361 7.5 14.5C7.5 14.3889 7.52431 14.2847 7.57292 14.1875C7.62153 14.0903 7.68056 14.0069 7.75 13.9375L11.5208 10.1458L10.9583 9.58333L7.16667 13.375C7.09722 13.4444 7.01389 13.5 6.91667 13.5417C6.81944 13.5833 6.71528 13.6042 6.60417 13.6042C6.38194 13.6042 6.19444 13.5278 6.04167 13.375C5.88889 13.2222 5.8125 13.0347 5.8125 12.8125C5.8125 12.7014 5.83333 12.5972 5.875 12.5C5.91667 12.4028 5.97222 12.3194 6.04167 12.25L9.83333 8.45833L9.25 7.875L5.47917 11.6667C5.40972 11.7361 5.32292 11.7917 5.21875 11.8333C5.11458 11.875 5.00694 11.8958 4.89583 11.8958C4.67361 11.8958 4.48611 11.8194 4.33333 11.6667C4.18056 11.5139 4.10417 11.3264 4.10417 11.1042C4.10417 10.9931 4.125 10.8889 4.16667 10.7917C4.20833 10.6944 4.26389 10.6111 4.33333 10.5417L8.89583 6L11.8958 9C12.0486 9.15278 12.2222 9.26736 12.4167 9.34375C12.6111 9.42014 12.8125 9.45833 13.0208 9.45833C13.4653 9.45833 13.8437 9.30208 14.1562 8.98958C14.4687 8.67708 14.625 8.29861 14.625 7.85417C14.625 7.64583 14.5833 7.44444 14.5 7.25C14.4167 7.05556 14.2986 6.88194 14.1458 6.72917L10.5625 3.14583C10.8681 2.78472 11.2257 2.50347 11.6354 2.30208C12.0451 2.10069 12.4861 2 12.9583 2C13.3611 2 13.7431 2.07639 14.1042 2.22917C14.4653 2.38194 14.7847 2.59722 15.0625 2.875L17.625 5.4375C17.9028 5.71528 18.1181 6.03472 18.2708 6.39583C18.4236 6.75694 18.5 7.13889 18.5 7.54167C18.5 7.94444 18.4236 8.32986 18.2708 8.69792C18.1181 9.06597 17.9028 9.38889 17.625 9.66667L10.5625 16.7708C10.4931 16.8403 10.4097 16.8958 10.3125 16.9375C10.2153 16.9792 10.1111 17 10 17ZM3.22917 10.5L2.375 9.64583C2.09722 9.36806 1.88194 9.04861 1.72917 8.6875C1.57639 8.32639 1.5 7.94444 1.5 7.54167C1.5 7.13889 1.57292 6.75347 1.71875 6.38542C1.86458 6.01736 2.08333 5.69444 2.375 5.41667L4.91667 2.875C5.19444 2.59722 5.51389 2.38194 5.875 2.22917C6.23611 2.07639 6.61806 2 7.02083 2C7.42361 2 7.80556 2.07639 8.16667 2.22917C8.52778 2.38194 8.85417 2.59722 9.14583 2.875L13.5833 7.29167C13.6528 7.36111 13.7083 7.44792 13.75 7.55208C13.7917 7.65625 13.8125 7.76389 13.8125 7.875C13.8125 8.09722 13.7326 8.28472 13.5729 8.4375C13.4132 8.59028 13.2222 8.66667 13 8.66667C12.8889 8.66667 12.7847 8.64583 12.6875 8.60417C12.5903 8.5625 12.5069 8.50694 12.4375 8.4375L8.875 4.85417L3.22917 10.5Z" fill="var(--fill-0, #1A97A4)"/>
</g>
</g>
</svg>
