<svg preserveAspectRatio="none" width="100%" height="100%" overflow="visible" style="display: block;" viewBox="0 0 20 20" fill="none" xmlns="http://www.w3.org/2000/svg">
<g id="border_color">
<mask id="mask0_524_17028" style="mask-type:alpha" maskUnits="userSpaceOnUse" x="0" y="0" width="20" height="20">
<rect id="Bounding box" width="20" height="20" fill="var(--fill-0, #D9D9D9)"/>
</mask>
<g mask="url(#mask0_524_17028)">
<path id="border_color_2" d="M2 20V16.8333H18V20H2ZM5.5 12.8446H6.42625L12.6554 6.60729L12.194 6.11708L11.7373 5.68917L5.5 11.9183V12.8446ZM4.41667 13.9279V11.4713L12.7998 3.07854C12.9205 2.95785 13.0459 2.87347 13.176 2.82542C13.3063 2.77736 13.4415 2.75333 13.5817 2.75333C13.7219 2.75333 13.8558 2.77736 13.9833 2.82542C14.1108 2.87347 14.2331 2.95479 14.35 3.06938L15.266 3.98083C15.3815 4.10153 15.4645 4.2259 15.5152 4.35396C15.5659 4.48187 15.5913 4.61785 15.5913 4.76188C15.5913 4.89674 15.5658 5.03118 15.515 5.16521C15.4642 5.2991 15.3833 5.42153 15.2723 5.5325L6.875 13.9279H4.41667ZM12.6554 6.60729L12.194 6.11708L11.7373 5.68917L12.6554 6.60729Z" fill="var(--fill-0, white)"/>
</g>
</g>
</svg>
