<svg preserveAspectRatio="none" width="100%" height="100%" overflow="visible" style="display: block;" viewBox="0 0 24 24" fill="none" xmlns="http://www.w3.org/2000/svg">
<g id="attachment">
<mask id="mask0_742_9296" style="mask-type:alpha" maskUnits="userSpaceOnUse" x="0" y="0" width="24" height="24">
<rect id="Bounding box" width="24" height="24" fill="var(--fill-0, #D9D9D9)"/>
</mask>
<g mask="url(#mask0_742_9296)">
<path id="attachment_2" d="M7.65376 18.5C5.80839 18.5 4.23806 17.8917 2.94276 16.675C1.64745 15.4583 0.9998 13.9833 0.9998 12.25C0.9998 10.5167 1.64745 9.04167 2.94276 7.825C4.23806 6.60833 5.80839 6 7.65376 6H17.5016C18.8324 6 19.9636 6.4375 20.8951 7.3125C21.8267 8.1875 22.2925 9.25 22.2925 10.5C22.2925 11.75 21.8267 12.8125 20.8951 13.6875C19.9636 14.5625 18.8324 15 17.5016 15H8.18607C7.36985 15 6.67784 14.7333 6.11004 14.2C5.54223 13.6667 5.25833 13.0167 5.25833 12.25C5.25833 11.4833 5.54223 10.8333 6.11004 10.3C6.67784 9.76667 7.36985 9.5 8.18607 9.5H18.0339V11.5H8.18607C7.9554 11.5 7.76466 11.5708 7.61383 11.7125C7.46301 11.8542 7.3876 12.0333 7.3876 12.25C7.3876 12.4667 7.46301 12.6458 7.61383 12.7875C7.76466 12.9292 7.9554 13 8.18607 13H17.5016C18.2469 12.9833 18.8768 12.7375 19.3913 12.2625C19.9059 11.7875 20.1632 11.2 20.1632 10.5C20.1632 9.8 19.9059 9.20833 19.3913 8.725C18.8768 8.24167 18.2469 8 17.5016 8H7.65376C6.39394 7.98333 5.32487 8.39167 4.44655 9.225C3.56823 10.0583 3.12907 11.0667 3.12907 12.25C3.12907 13.4167 3.56823 14.4083 4.44655 15.225C5.32487 16.0417 6.39394 16.4667 7.65376 16.5H18.0339V18.5H7.65376Z" fill="var(--fill-0, #1C1B1F)"/>
</g>
</g>
</svg>
