<svg preserveAspectRatio="none" width="100%" height="100%" overflow="visible" style="display: block;" viewBox="0 0 22 13" fill="none" xmlns="http://www.w3.org/2000/svg">
<path id="attachment" d="M6.65396 12.5C4.80859 12.5 3.23826 11.8917 1.94296 10.675C0.647652 9.45833 0 7.98333 0 6.25C0 4.51667 0.647652 3.04167 1.94296 1.825C3.23826 0.608333 4.80859 0 6.65396 0H16.5018C17.8326 0 18.9638 0.4375 19.8953 1.3125C20.8269 2.1875 21.2927 3.25 21.2927 4.5C21.2927 5.75 20.8269 6.8125 19.8953 7.6875C18.9638 8.5625 17.8326 9 16.5018 9H7.18627C6.37005 9 5.67804 8.73333 5.11024 8.2C4.54243 7.66667 4.25853 7.01667 4.25853 6.25C4.25853 5.48333 4.54243 4.83333 5.11024 4.3C5.67804 3.76667 6.37005 3.5 7.18627 3.5H17.0341V5.5H7.18627C6.9556 5.5 6.76486 5.57083 6.61403 5.7125C6.46321 5.85417 6.3878 6.03333 6.3878 6.25C6.3878 6.46667 6.46321 6.64583 6.61403 6.7875C6.76486 6.92917 6.9556 7 7.18627 7H16.5018C17.2471 6.98333 17.877 6.7375 18.3915 6.2625C18.9061 5.7875 19.1634 5.2 19.1634 4.5C19.1634 3.8 18.9061 3.20833 18.3915 2.725C17.877 2.24167 17.2471 2 16.5018 2H6.65396C5.39414 1.98333 4.32507 2.39167 3.44675 3.225C2.56843 4.05833 2.12927 5.06667 2.12927 6.25C2.12927 7.41667 2.56843 8.40833 3.44675 9.225C4.32507 10.0417 5.39414 10.4667 6.65396 10.5H17.0341V12.5H6.65396Z" fill="var(--fill-0, #1C1B1F)"/>
</svg>
