<svg width="259" height="269" viewBox="0 0 259 269" fill="none" xmlns="http://www.w3.org/2000/svg">
<mask id="path-1-inside-1_9_718" fill="white">
<path d="M8.17636 79.4944C8.17636 65.7745 19.2985 54.6523 33.0185 54.6523H219.334C233.054 54.6523 244.176 65.7745 244.176 79.4944V240.968C244.176 254.688 233.054 265.81 219.334 265.81H33.0185C19.2985 265.81 8.17636 254.688 8.17636 240.968V79.4944Z"/>
</mask>
<path d="M8.17636 79.4944C8.17636 65.7745 19.2985 54.6523 33.0185 54.6523H219.334C233.054 54.6523 244.176 65.7745 244.176 79.4944V240.968C244.176 254.688 233.054 265.81 219.334 265.81H33.0185C19.2985 265.81 8.17636 254.688 8.17636 240.968V79.4944Z" fill="#A16436"/>
<path d="M8.17636 79.4944C8.17636 64.917 19.9937 53.0997 34.5711 53.0997H217.782C232.359 53.0997 244.176 64.917 244.176 79.4944C244.176 66.632 233.054 56.2049 219.334 56.2049H33.0185C19.2985 56.2049 8.17636 66.632 8.17636 79.4944ZM244.176 265.81H8.17636H244.176ZM8.17636 265.81V54.6523V265.81ZM244.176 54.6523V265.81V54.6523Z" fill="black" mask="url(#path-1-inside-1_9_718)"/>
<rect x="14.1983" y="62.5556" width="223.967" height="195.353" rx="24.8421" stroke="#643000" stroke-width="1.55263" stroke-dasharray="6.21 6.21"/>
<path d="M14.1983 87.3977C14.1983 73.6778 25.3205 62.5556 39.0404 62.5556H213.323C227.043 62.5556 238.165 73.6778 238.165 87.3977V233.066C238.165 246.786 227.043 257.908 213.323 257.908H39.0404C25.3205 257.908 14.1983 246.786 14.1983 233.066V87.3977Z" stroke="#643000" stroke-width="1.55263" stroke-dasharray="6.21 6.21"/>
<g filter="url(#filter0_d_9_718)">
<g filter="url(#filter1_ii_9_718)">
<circle cx="129.179" cy="129.179" r="99.3684" fill="url(#paint0_linear_9_718)"/>
</g>
<g filter="url(#filter2_ii_9_718)">
<circle cx="129.17" cy="129.178" r="92.6654" fill="url(#paint1_linear_9_718)"/>
<circle cx="129.17" cy="129.178" r="92.6654" fill="black" fill-opacity="0.2"/>
</g>
<mask id="mask0_9_718" style="mask-type:alpha" maskUnits="userSpaceOnUse" x="36" y="36" width="186" height="186">
<circle cx="129.189" cy="129.178" r="92.6654" fill="url(#paint2_linear_9_718)"/>
</mask>
<g mask="url(#mask0_9_718)">
<g style="mix-blend-mode:soft-light">
<rect x="29.7244" y="95.2576" width="81.686" height="81.686" rx="12.4211" transform="rotate(45 29.7244 95.2576)" stroke="#D9D9D9" stroke-opacity="0.6" stroke-width="2.38212"/>
<rect x="228.821" y="95.2576" width="81.686" height="81.686" rx="12.4211" transform="rotate(45 228.821 95.2576)" stroke="#D9D9D9" stroke-opacity="0.6" stroke-width="2.38212"/>
<rect x="29.7244" y="47.2713" width="81.686" height="81.686" rx="12.4211" transform="rotate(45 29.7244 47.2713)" stroke="#D9D9D9" stroke-opacity="0.6" stroke-width="2.38212"/>
<rect x="228.821" y="47.2713" width="81.686" height="81.686" rx="12.4211" transform="rotate(45 228.821 47.2713)" stroke="#D9D9D9" stroke-opacity="0.6" stroke-width="2.38212"/>
</g>
</g>
<g filter="url(#filter3_ii_9_718)">
<path d="M118.555 144.168C116.234 144.159 114.237 143.588 112.563 142.454C110.899 141.32 109.617 139.679 108.717 137.529C107.827 135.378 107.386 132.792 107.395 129.769C107.395 126.756 107.84 124.187 108.731 122.064C109.631 119.941 110.913 118.326 112.577 117.22C114.25 116.104 116.243 115.546 118.555 115.546C120.867 115.546 122.855 116.104 124.519 117.22C126.193 118.335 127.479 119.954 128.379 122.078C129.278 124.192 129.724 126.756 129.715 129.769C129.715 132.801 129.265 135.392 128.365 137.542C127.475 139.692 126.197 141.334 124.533 142.467C122.868 143.601 120.876 144.168 118.555 144.168ZM118.555 139.323C120.138 139.323 121.402 138.527 122.347 136.935C123.291 135.342 123.759 132.954 123.75 129.769C123.75 127.673 123.534 125.928 123.102 124.534C122.68 123.139 122.077 122.091 121.294 121.389C120.52 120.688 119.607 120.337 118.555 120.337C116.98 120.337 115.721 121.124 114.776 122.698C113.832 124.273 113.355 126.63 113.346 129.769C113.346 131.892 113.557 133.665 113.98 135.086C114.412 136.498 115.019 137.56 115.802 138.271C116.585 138.972 117.502 139.323 118.555 139.323ZM137.979 122.833L141.784 130.08L145.684 122.833H151.581L145.576 133.197L151.743 143.561H145.873L141.784 136.395L137.763 143.561H131.826L137.979 133.197L132.041 122.833H137.979Z" fill="url(#paint3_linear_9_718)"/>
</g>
<g style="mix-blend-mode:overlay">
<path d="M66.7373 183.124L69.9156 180.457L70.3636 179.974L71.1616 180.925L69.8454 184.439L73.5765 183.803L74.2852 184.648L70.6064 187.735L69.9134 186.909L72.2471 184.951L72.1893 184.882L71.4403 185.095L69.3648 185.493L68.7296 184.736L69.4821 182.761L69.8164 182.054L69.7639 181.991L67.4302 183.95L66.7373 183.124Z" fill="white"/>
<path d="M73.2841 190.236L74.6795 188.813L74.95 185.143L75.8829 186.058L75.6765 187.995L75.5901 188.619L75.6484 188.676L76.2712 188.578L78.2036 188.334L79.1366 189.249L78.566 189.376L75.4263 189.591L74.0538 190.99L73.2841 190.236Z" fill="white"/>
<path d="M83.4136 198.668L88.0519 195.971L89.3962 196.855L88.7497 202.178L87.6989 201.487L87.8663 200.355L85.4234 198.749L84.4099 199.323L83.4136 198.668ZM86.1089 198.241L88.0536 199.521L88.344 197.043L88.2758 196.998L86.1089 198.241Z" fill="white"/>
<path d="M90.6178 203.136L92.5514 199.466L92.7836 198.849L93.8242 199.398L94.926 203.264L95.0023 203.803L95.0818 203.845L96.6423 200.882L97.5962 201.384L95.3581 205.633L94.4404 205.15L93.3036 201.21L93.2006 200.721L93.1284 200.683L91.5716 203.639L90.6178 203.136Z" fill="white"/>
<path d="M96.9154 206.215L100.947 202.674L102.436 203.282L102.828 208.63L101.664 208.154L101.61 207.012L98.903 205.906L98.0193 206.666L96.9154 206.215ZM99.4779 205.276L101.633 206.157L101.44 203.669L101.365 203.639L99.4779 205.276Z" fill="white"/>
<path d="M104.741 209.099L105.007 208.497L106.197 204.522L107.229 204.831L106.077 208.681L109.316 209.651L109.43 210.409C109.424 210.43 109.347 210.43 109.2 210.409C109.054 210.382 108.81 210.317 108.465 210.214L104.741 209.099Z" fill="white"/>
<path d="M113.912 211.326L114.296 209.37L112.505 206.155L113.787 206.407L114.679 208.139L114.95 208.708L115.03 208.724L115.497 208.299L116.977 207.034L118.259 207.285L117.852 207.705L115.347 209.61L114.97 211.533L113.912 211.326Z" fill="white"/>
<path d="M121.398 212.259L121.78 208.251L119.666 208.045L119.742 207.265L125.058 207.782L124.983 208.562L122.861 208.356L122.471 212.364L121.398 212.259Z" fill="white"/>
<path d="M127.415 212.426V207.624H128.494V212.426H127.415Z" fill="white"/>
<path d="M134.132 212.5C133.747 212.538 133.441 212.513 133.214 212.425C132.987 212.338 132.819 212.19 132.711 211.982C132.604 211.774 132.534 211.509 132.503 211.19L132.327 209.377C132.276 208.857 132.355 208.463 132.565 208.197C132.773 207.925 133.141 207.763 133.666 207.712L136.113 207.474C136.487 207.438 136.774 207.432 136.973 207.456C137.177 207.475 137.281 207.506 137.286 207.549L137.189 208.239C137.095 208.232 136.82 208.242 136.363 208.271C135.911 208.293 135.254 208.346 134.393 208.429L133.978 208.47C133.544 208.512 133.346 208.725 133.384 209.11L133.585 211.183C133.603 211.367 133.663 211.506 133.766 211.6C133.873 211.688 134.048 211.721 134.292 211.697L134.625 211.664C135.525 211.577 136.22 211.501 136.712 211.437C137.208 211.367 137.515 211.315 137.632 211.282L138.018 211.786C138.02 211.813 137.978 211.858 137.891 211.921C137.81 211.984 137.652 212.048 137.418 212.115C137.184 212.181 136.842 212.237 136.392 212.28L134.132 212.5Z" fill="white"/>
<path d="M141.689 211.877C141.325 211.948 141.055 211.984 140.878 211.986C140.7 211.987 140.608 211.967 140.599 211.924L140.783 211.164C140.91 211.161 141.219 211.123 141.709 211.048C142.204 210.968 142.879 210.844 143.733 210.676L143.886 210.646C144.115 210.601 144.27 210.529 144.351 210.43C144.43 210.325 144.451 210.174 144.412 209.977L144.38 209.816C144.344 209.629 144.277 209.504 144.181 209.439C144.091 209.374 143.912 209.367 143.645 209.42L141.786 209.785C141.246 209.891 140.834 209.869 140.549 209.72C140.264 209.565 140.076 209.261 139.987 208.806L139.962 208.678C139.916 208.443 139.916 208.218 139.963 208.004C140.015 207.788 140.136 207.601 140.326 207.441C140.516 207.277 140.798 207.157 141.172 207.084L143.352 206.656C143.715 206.584 144.013 206.545 144.244 206.539C144.476 206.532 144.596 206.55 144.604 206.593L144.576 207.298C144.434 207.309 144.116 207.355 143.621 207.435C143.126 207.51 142.464 207.629 141.635 207.792L141.546 207.801C141.3 207.849 141.144 207.933 141.079 208.051C141.012 208.164 140.991 208.296 141.015 208.446L141.042 208.583C141.076 208.759 141.151 208.883 141.265 208.955C141.383 209.021 141.557 209.031 141.787 208.986L143.566 208.636C143.908 208.569 144.206 208.547 144.46 208.569C144.714 208.591 144.923 208.683 145.088 208.845C145.252 209.001 145.369 209.259 145.44 209.617L145.465 209.745C145.544 210.146 145.503 210.489 145.343 210.776C145.188 211.062 144.857 211.254 144.349 211.354L141.689 211.877Z" fill="white"/>
<path d="M157.097 208.206C156.755 208.346 156.496 208.434 156.323 208.47C156.149 208.506 156.054 208.503 156.038 208.463L156.071 207.682C156.195 207.654 156.491 207.557 156.958 207.39C157.428 207.216 158.066 206.964 158.872 206.634L159.016 206.576C159.233 206.487 159.371 206.386 159.431 206.274C159.489 206.156 159.479 206.004 159.403 205.817L159.342 205.666C159.269 205.49 159.18 205.379 159.074 205.335C158.972 205.288 158.795 205.316 158.543 205.419L156.789 206.135C156.28 206.343 155.872 206.401 155.564 206.31C155.254 206.213 155.011 205.95 154.836 205.522L154.787 205.401C154.696 205.179 154.653 204.958 154.657 204.739C154.667 204.518 154.75 204.31 154.906 204.117C155.06 203.919 155.314 203.747 155.667 203.603L157.723 202.763C158.066 202.623 158.35 202.527 158.576 202.476C158.803 202.425 158.924 202.42 158.94 202.46L159.049 203.157C158.911 203.195 158.608 203.302 158.138 203.476C157.666 203.645 157.039 203.889 156.258 204.209L156.172 204.235C155.94 204.33 155.803 204.441 155.762 204.57C155.718 204.694 155.723 204.827 155.775 204.97L155.828 205.099C155.896 205.265 155.993 205.373 156.118 205.421C156.247 205.463 156.42 205.439 156.637 205.351L158.315 204.665C158.638 204.533 158.926 204.454 159.179 204.427C159.433 204.4 159.656 204.45 159.849 204.577C160.04 204.699 160.205 204.928 160.343 205.266L160.392 205.387C160.546 205.765 160.573 206.11 160.471 206.422C160.374 206.732 160.086 206.985 159.607 207.181L157.097 208.206Z" fill="white"/>
<path d="M164.837 204.998C164.495 205.178 164.202 205.271 163.959 205.276C163.715 205.281 163.504 205.208 163.326 205.055C163.147 204.903 162.983 204.685 162.833 204.401L161.984 202.79C161.741 202.327 161.665 201.933 161.758 201.607C161.849 201.276 162.128 200.988 162.595 200.742L164.77 199.596C165.102 199.421 165.366 199.307 165.559 199.254C165.755 199.194 165.863 199.183 165.884 199.222L166.055 199.898C165.966 199.926 165.715 200.04 165.302 200.239C164.892 200.43 164.304 200.727 163.538 201.131L163.17 201.325C162.785 201.528 162.682 201.801 162.862 202.143L163.833 203.985C163.919 204.149 164.027 204.255 164.157 204.304C164.29 204.345 164.464 204.308 164.681 204.194L164.977 204.038C165.777 203.617 166.392 203.283 166.823 203.038C167.256 202.785 167.521 202.621 167.616 202.546L168.164 202.867C168.177 202.891 168.155 202.949 168.098 203.04C168.046 203.129 167.925 203.248 167.733 203.399C167.541 203.549 167.246 203.729 166.846 203.94L164.837 204.998Z" fill="white"/>
<path d="M170.492 202.053L167.853 198.041L168.753 197.448L169.848 199.113L172.523 197.354L171.428 195.689L172.329 195.096L174.968 199.109L174.067 199.701L172.954 198.009L170.279 199.768L171.392 201.46L170.492 202.053Z" fill="white"/>
<path d="M178.131 196.874C177.835 197.113 177.568 197.258 177.33 197.31C177.092 197.362 176.868 197.333 176.66 197.221C176.455 197.106 176.252 196.924 176.05 196.674L174.866 195.206C174.668 194.96 174.536 194.727 174.47 194.507C174.401 194.283 174.417 194.06 174.519 193.838C174.616 193.613 174.816 193.378 175.116 193.136L176.973 191.638C177.269 191.399 177.536 191.257 177.773 191.213C178.011 191.161 178.232 191.192 178.437 191.307C178.642 191.414 178.844 191.591 179.042 191.837L180.227 193.305C180.528 193.678 180.674 194.029 180.666 194.357C180.655 194.681 180.429 195.021 179.988 195.376L178.131 196.874ZM177.824 196.115L179.318 194.91C179.474 194.783 179.563 194.645 179.582 194.497C179.606 194.344 179.562 194.198 179.449 194.058L178.142 192.437C178.043 192.314 177.914 192.246 177.757 192.233C177.596 192.216 177.44 192.269 177.287 192.392L175.793 193.597C175.641 193.72 175.55 193.86 175.522 194.015C175.494 194.171 175.534 194.317 175.643 194.452L176.951 196.073C177.067 196.218 177.202 196.294 177.356 196.303C177.511 196.304 177.667 196.241 177.824 196.115Z" fill="white"/>
<path d="M184.035 191.832C183.763 192.099 183.511 192.269 183.279 192.344C183.047 192.419 182.822 192.411 182.603 192.32C182.389 192.226 182.169 192.064 181.944 191.835L180.623 190.488C180.402 190.262 180.248 190.043 180.161 189.831C180.071 189.614 180.066 189.391 180.145 189.16C180.22 188.926 180.396 188.674 180.672 188.403L182.375 186.733C182.647 186.466 182.899 186.299 183.13 186.232C183.362 186.158 183.585 186.167 183.8 186.262C184.015 186.349 184.233 186.505 184.454 186.73L185.775 188.077C186.11 188.419 186.29 188.754 186.314 189.082C186.334 189.405 186.142 189.765 185.737 190.162L184.035 191.832ZM183.655 191.106L185.025 189.762C185.169 189.621 185.243 189.476 185.249 189.325C185.258 189.172 185.2 189.03 185.074 188.902L183.615 187.415C183.505 187.303 183.371 187.247 183.213 187.25C183.051 187.248 182.9 187.316 182.76 187.453L181.39 188.797C181.25 188.934 181.174 189.082 181.161 189.24C181.147 189.397 181.202 189.538 181.324 189.663L182.782 191.15C182.912 191.282 183.054 191.345 183.208 191.339C183.362 191.325 183.511 191.247 183.655 191.106Z" fill="white"/>
<path d="M188.504 186.747L188.056 186.264L184.878 183.597L185.571 182.771L188.649 185.354L190.822 182.764L191.564 182.96C191.581 182.974 191.55 183.044 191.472 183.171C191.39 183.294 191.234 183.493 191.003 183.769L188.504 186.747Z" fill="white"/>
</g>
<g style="mix-blend-mode:soft-light">
<path d="M59.7031 98.2304L60.2596 100.701C60.6839 102.585 62.1549 104.056 64.0386 104.48L66.5091 105.036L64.0386 105.593C62.1549 106.017 60.6839 107.488 60.2596 109.372L59.7031 111.843L59.1465 109.372C58.7222 107.488 57.2512 106.017 55.3675 105.593L52.897 105.036L55.3675 104.48C57.2512 104.056 58.7222 102.585 59.1465 100.701L59.7031 98.2304Z" fill="#D9D9D9"/>
</g>
<g style="mix-blend-mode:soft-light">
<path d="M198.776 98.2304L198.219 100.701C197.795 102.585 196.324 104.056 194.44 104.48L191.97 105.036L194.44 105.593C196.324 106.017 197.795 107.488 198.219 109.372L198.776 111.843L199.332 109.372C199.757 107.488 201.228 106.017 203.111 105.593L205.582 105.036L203.111 104.48C201.228 104.056 199.757 102.585 199.332 100.701L198.776 98.2304Z" fill="#D9D9D9"/>
</g>
<g style="mix-blend-mode:soft-light">
<path d="M59.7033 146.216L60.2598 148.686C60.6841 150.57 62.1552 152.041 64.0389 152.465L66.5094 153.022L64.0389 153.578C62.1552 154.003 60.6841 155.474 60.2598 157.357L59.7033 159.828L59.1468 157.357C58.7225 155.474 57.2514 154.003 55.3678 153.578L52.8972 153.022L55.3678 152.465C57.2514 152.041 58.7225 150.57 59.1468 148.686L59.7033 146.216Z" fill="#D9D9D9"/>
</g>
<g style="mix-blend-mode:soft-light">
<path d="M198.776 146.216L198.219 148.686C197.795 150.57 196.324 152.041 194.44 152.465L191.97 153.022L194.44 153.578C196.324 154.003 197.795 155.474 198.219 157.357L198.776 159.828L199.332 157.357C199.757 155.474 201.228 154.003 203.111 153.578L205.582 153.022L203.111 152.465C201.228 152.041 199.757 150.57 199.332 148.686L198.776 146.216Z" fill="#D9D9D9"/>
</g>
<g style="mix-blend-mode:soft-light">
<path d="M44.6264 122.257L45.1829 124.727C45.6073 126.611 47.0783 128.082 48.962 128.507L51.4325 129.063L48.962 129.62C47.0783 130.044 45.6073 131.515 45.1829 133.399L44.6264 135.869L44.0699 133.399C43.6456 131.515 42.1746 130.044 40.2909 129.62L37.8204 129.063L40.2909 128.507C42.1746 128.082 43.6456 126.611 44.0699 124.727L44.6264 122.257Z" fill="#D9D9D9"/>
</g>
<g style="mix-blend-mode:soft-light">
<path d="M213.891 122.257L213.335 124.727C212.911 126.611 211.44 128.082 209.556 128.507L207.085 129.063L209.556 129.62C211.44 130.044 212.911 131.515 213.335 133.399L213.891 135.869L214.448 133.399C214.872 131.515 216.343 130.044 218.227 129.62L220.697 129.063L218.227 128.507C216.343 128.082 214.872 126.611 214.448 124.727L213.891 122.257Z" fill="#D9D9D9"/>
</g>
</g>
<g filter="url(#filter4_diii_9_718)">
<path d="M8.17636 147.811H244.176V240.968C244.176 254.688 233.054 265.811 219.334 265.811H33.0185C19.2985 265.811 8.17636 254.688 8.17636 240.968V147.811Z" fill="#B27945"/>
<path d="M8.17636 147.034H244.176V148.587H8.17636V147.034ZM244.176 265.811H8.17636H244.176ZM8.17636 265.811V147.811V265.811ZM244.176 147.811V265.811V147.811Z" fill="#492300"/>
</g>
<g filter="url(#filter5_di_9_718)">
<path d="M35.7926 257.692C35.8494 257.268 36.2386 256.971 36.6647 257.013C37.4449 257.09 38.2362 257.131 39.037 257.131H41.372C41.8007 257.131 42.1483 257.478 42.1483 257.907C42.1483 258.336 41.8007 258.684 41.372 258.684H39.037C38.1695 258.684 37.3102 258.639 36.4637 258.554C36.0356 258.512 35.7355 258.119 35.7926 257.692ZM53.8234 257.131C54.2521 257.131 54.5997 257.478 54.5997 257.907C54.5997 258.336 54.2521 258.684 53.8234 258.684H49.1473C48.7185 258.684 48.371 258.336 48.371 257.907C48.371 257.478 48.7185 257.131 49.1473 257.131H53.8234ZM66.2687 257.131C66.6974 257.131 67.045 257.478 67.045 257.907C67.045 258.336 66.6974 258.684 66.2687 258.684H61.5986C61.1699 258.684 60.8223 258.336 60.8223 257.907C60.8223 257.478 61.1699 257.131 61.5986 257.131H66.2687ZM78.72 257.131C79.1488 257.131 79.4964 257.478 79.4964 257.907C79.4964 258.336 79.1488 258.684 78.72 258.684H74.05C73.6213 258.684 73.2737 258.336 73.2737 257.907C73.2737 257.478 73.6213 257.131 74.05 257.131H78.72ZM91.1654 257.131C91.5941 257.131 91.9417 257.478 91.9417 257.907C91.9417 258.336 91.5941 258.684 91.1654 258.684H86.4953C86.0666 258.684 85.719 258.336 85.719 257.907C85.719 257.478 86.0666 257.131 86.4953 257.131H91.1654ZM103.617 257.131C104.045 257.131 104.393 257.478 104.393 257.907C104.393 258.336 104.045 258.684 103.617 258.684H98.9467C98.518 258.684 98.1704 258.336 98.1704 257.907C98.1704 257.478 98.518 257.131 98.9467 257.131H103.617ZM116.068 257.131C116.497 257.131 116.844 257.478 116.844 257.907C116.844 258.336 116.497 258.684 116.068 258.684H111.392C110.963 258.684 110.616 258.336 110.616 257.907C110.616 257.478 110.963 257.131 111.392 257.131H116.068ZM128.513 257.131C128.942 257.131 129.29 257.478 129.29 257.907C129.29 258.336 128.942 258.684 128.513 258.684H123.843C123.415 258.684 123.067 258.336 123.067 257.907C123.067 257.478 123.415 257.131 123.843 257.131H128.513ZM140.965 257.131C141.394 257.131 141.741 257.478 141.741 257.907C141.741 258.336 141.394 258.684 140.965 258.684H136.289C135.86 258.684 135.512 258.336 135.512 257.907C135.512 257.478 135.86 257.131 136.289 257.131H140.965ZM153.41 257.131C153.839 257.131 154.186 257.478 154.186 257.907C154.186 258.336 153.839 258.684 153.41 258.684H148.74C148.311 258.684 147.964 258.336 147.964 257.907C147.964 257.478 148.311 257.131 148.74 257.131H153.41ZM165.861 257.131C166.29 257.131 166.638 257.478 166.638 257.907C166.638 258.336 166.29 258.684 165.861 258.684H161.191C160.763 258.684 160.415 258.336 160.415 257.907C160.415 257.478 160.763 257.131 161.191 257.131H165.861ZM178.307 257.131C178.736 257.131 179.083 257.478 179.083 257.907C179.083 258.336 178.736 258.684 178.307 258.684H173.637C173.208 258.684 172.86 258.336 172.86 257.907C172.86 257.478 173.208 257.131 173.637 257.131H178.307ZM190.758 257.131C191.187 257.131 191.535 257.478 191.535 257.907C191.535 258.336 191.187 258.684 190.758 258.684H186.088C185.659 258.684 185.312 258.336 185.312 257.907C185.312 257.478 185.659 257.131 186.088 257.131H190.758ZM203.21 257.131C203.638 257.131 203.986 257.478 203.986 257.907C203.986 258.336 203.638 258.684 203.21 258.684H198.533C198.105 258.684 197.757 258.336 197.757 257.907C197.757 257.478 198.105 257.131 198.533 257.131H203.21ZM216.564 257.692C216.621 258.119 216.321 258.512 215.893 258.554C215.047 258.639 214.187 258.684 213.32 258.684H210.985C210.556 258.684 210.209 258.336 210.209 257.907C210.209 257.478 210.556 257.131 210.985 257.131H213.32C214.121 257.131 214.912 257.09 215.692 257.013C216.118 256.971 216.507 257.268 216.564 257.692ZM23.9109 252.776C24.172 252.435 24.66 252.371 25.009 252.622C26.2888 253.542 27.6632 254.339 29.1131 254.997C29.503 255.173 29.6911 255.626 29.527 256.021C29.3629 256.416 28.9091 256.605 28.519 256.429C26.9412 255.718 25.4469 254.852 24.0586 253.851C23.7122 253.601 23.6499 253.114 23.9109 252.776ZM228.446 252.776C228.707 253.114 228.645 253.601 228.298 253.851C226.91 254.852 225.416 255.718 223.838 256.429C223.448 256.605 222.994 256.416 222.83 256.021C222.666 255.626 222.854 255.173 223.244 254.997C224.694 254.339 226.068 253.542 227.348 252.622C227.697 252.371 228.185 252.435 228.446 252.776ZM16.0807 242.575C16.4761 242.411 16.9286 242.599 17.1053 242.989C17.7626 244.439 18.5605 245.813 19.4799 247.093C19.7307 247.442 19.6672 247.93 19.3258 248.191C18.9878 248.452 18.5009 248.39 18.251 248.043C17.2497 246.655 16.384 245.161 15.6729 243.583C15.4971 243.193 15.6856 242.739 16.0807 242.575ZM236.276 242.575C236.671 242.739 236.86 243.193 236.684 243.583C235.973 245.161 235.107 246.655 234.106 248.043C233.856 248.39 233.369 248.452 233.031 248.191C232.69 247.93 232.626 247.442 232.877 247.093C233.796 245.813 234.594 244.439 235.252 242.989C235.428 242.599 235.881 242.411 236.276 242.575ZM13.4185 233.065V230.809C13.4185 230.38 13.7661 230.033 14.1949 230.033C14.6236 230.033 14.9712 230.38 14.9712 230.809V233.065C14.9712 233.866 15.012 234.657 15.0892 235.437C15.1313 235.863 14.8341 236.253 14.4098 236.309C13.9833 236.367 13.5905 236.066 13.5476 235.638C13.4628 234.792 13.4185 233.933 13.4185 233.065ZM237.386 233.065V230.809C237.386 230.38 237.733 230.033 238.162 230.033C238.591 230.033 238.938 230.38 238.938 230.809V233.065C238.938 233.933 238.894 234.792 238.809 235.638C238.766 236.066 238.373 236.367 237.947 236.309C237.523 236.253 237.226 235.863 237.268 235.437C237.345 234.657 237.386 233.866 237.386 233.065ZM14.1949 217.891C14.6236 217.891 14.9712 218.238 14.9712 218.667V223.185C14.9712 223.614 14.6236 223.962 14.1949 223.962C13.7661 223.962 13.4185 223.614 13.4185 223.185V218.667C13.4185 218.238 13.7661 217.891 14.1949 217.891ZM238.162 217.891C238.591 217.891 238.938 218.238 238.938 218.667V223.185C238.938 223.614 238.591 223.962 238.162 223.962C237.733 223.962 237.386 223.614 237.386 223.185V218.667C237.386 218.238 237.733 217.891 238.162 217.891ZM14.1949 205.755C14.6236 205.755 14.9712 206.102 14.9712 206.531V211.043C14.9712 211.472 14.6236 211.82 14.1949 211.82C13.7661 211.82 13.4185 211.472 13.4185 211.043V206.531C13.4185 206.102 13.7661 205.755 14.1949 205.755ZM238.162 205.755C238.591 205.755 238.938 206.102 238.938 206.531V211.043C238.938 211.472 238.591 211.82 238.162 211.82C237.733 211.82 237.386 211.472 237.386 211.043V206.531C237.386 206.102 237.733 205.755 238.162 205.755ZM14.1949 193.612C14.6236 193.612 14.9712 193.96 14.9712 194.389V198.907C14.9712 199.336 14.6236 199.684 14.1949 199.684C13.7661 199.684 13.4185 199.336 13.4185 198.907V194.389C13.4185 193.96 13.7661 193.612 14.1949 193.612ZM238.162 193.612C238.591 193.612 238.938 193.96 238.938 194.389V198.907C238.938 199.336 238.591 199.684 238.162 199.684C237.733 199.684 237.386 199.336 237.386 198.907V194.389C237.386 193.96 237.733 193.612 238.162 193.612ZM14.1949 181.476C14.6236 181.476 14.9712 181.824 14.9712 182.253V186.765C14.9712 187.194 14.6236 187.541 14.1949 187.541C13.7661 187.541 13.4185 187.194 13.4185 186.765V182.253C13.4185 181.824 13.7661 181.476 14.1949 181.476ZM238.162 181.476C238.591 181.476 238.938 181.824 238.938 182.253V186.765C238.938 187.194 238.591 187.541 238.162 187.541C237.733 187.541 237.386 187.194 237.386 186.765V182.253C237.386 181.824 237.733 181.476 238.162 181.476ZM14.1949 169.334C14.6236 169.334 14.9712 169.682 14.9712 170.111V174.629C14.9712 175.058 14.6236 175.405 14.1949 175.405C13.7661 175.405 13.4185 175.058 13.4185 174.629V170.111C13.4185 169.682 13.7661 169.334 14.1949 169.334ZM238.162 169.334C238.591 169.334 238.938 169.682 238.938 170.111V174.629C238.938 175.058 238.591 175.405 238.162 175.405C237.733 175.405 237.386 175.058 237.386 174.629V170.111C237.386 169.682 237.733 169.334 238.162 169.334ZM14.1949 157.198C14.6236 157.198 14.9712 157.546 14.9712 157.975V162.487C14.9712 162.916 14.6236 163.263 14.1949 163.263C13.7661 163.263 13.4185 162.916 13.4185 162.487V157.975C13.4185 157.546 13.7661 157.198 14.1949 157.198ZM238.162 157.198C238.591 157.198 238.938 157.546 238.938 157.975V162.487C238.938 162.916 238.591 163.263 238.162 163.263C237.733 163.263 237.386 162.916 237.386 162.487V157.975C237.386 157.546 237.733 157.198 238.162 157.198ZM14.1949 145.056C14.6236 145.056 14.9712 145.404 14.9712 145.833V150.351C14.9712 150.78 14.6236 151.127 14.1949 151.127C13.7661 151.127 13.4185 150.78 13.4185 150.351V145.833C13.4185 145.404 13.7661 145.056 14.1949 145.056ZM238.162 145.056C238.591 145.056 238.938 145.404 238.938 145.833V150.351C238.938 150.78 238.591 151.127 238.162 151.127C237.733 151.127 237.386 150.78 237.386 150.351V145.833C237.386 145.404 237.733 145.056 238.162 145.056ZM14.1949 132.92C14.6236 132.92 14.9712 133.268 14.9712 133.697V138.209C14.9712 138.638 14.6236 138.985 14.1949 138.985C13.7661 138.985 13.4185 138.638 13.4185 138.209V133.697C13.4185 133.268 13.7661 132.92 14.1949 132.92ZM238.162 132.92C238.591 132.92 238.938 133.268 238.938 133.697V138.209C238.938 138.638 238.591 138.985 238.162 138.985C237.733 138.985 237.386 138.638 237.386 138.209V133.697C237.386 133.268 237.733 132.92 238.162 132.92ZM14.1949 120.778C14.6236 120.778 14.9712 121.126 14.9712 121.555V126.073C14.9712 126.502 14.6236 126.849 14.1949 126.849C13.7661 126.849 13.4185 126.502 13.4185 126.073V121.555C13.4185 121.126 13.7661 120.778 14.1949 120.778ZM238.162 120.778C238.591 120.778 238.938 121.126 238.938 121.555V126.073C238.938 126.502 238.591 126.849 238.162 126.849C237.733 126.849 237.386 126.502 237.386 126.073V121.555C237.386 121.126 237.733 120.778 238.162 120.778ZM14.1949 108.642C14.6236 108.642 14.9712 108.99 14.9712 109.419V113.931C14.9712 114.36 14.6236 114.707 14.1949 114.707C13.7661 114.707 13.4185 114.36 13.4185 113.931V109.419C13.4185 108.99 13.7661 108.642 14.1949 108.642ZM238.162 108.642C238.591 108.642 238.938 108.99 238.938 109.419V113.931C238.938 114.36 238.591 114.707 238.162 114.707C237.733 114.707 237.386 114.36 237.386 113.931V109.419C237.386 108.99 237.733 108.642 238.162 108.642ZM14.1949 96.5002C14.6236 96.5002 14.9712 96.8478 14.9712 97.2765V101.795C14.9712 102.224 14.6236 102.571 14.1949 102.571C13.7661 102.571 13.4185 102.224 13.4185 101.795V97.2765C13.4185 96.8478 13.7661 96.5002 14.1949 96.5002ZM238.162 96.5002C238.591 96.5002 238.938 96.8478 238.938 97.2765V101.795C238.938 102.224 238.591 102.571 238.162 102.571C237.733 102.571 237.386 102.224 237.386 101.795V97.2765C237.386 96.8478 237.733 96.5002 238.162 96.5002ZM13.4185 87.3967C13.4185 86.5292 13.4628 85.6699 13.5476 84.8234C13.5905 84.3954 13.9833 84.0952 14.4098 84.1523C14.8341 84.2091 15.1313 84.5984 15.0892 85.0245C15.012 85.8047 14.9712 86.5959 14.9712 87.3967V89.6529C14.9712 90.0816 14.6236 90.4292 14.1949 90.4292C13.7661 90.4292 13.4185 90.0816 13.4185 89.6529V87.3967ZM237.386 87.3967C237.386 86.5959 237.345 85.8047 237.268 85.0245C237.226 84.5984 237.523 84.2091 237.947 84.1523C238.373 84.0952 238.766 84.3954 238.809 84.8234C238.894 85.6699 238.938 86.5292 238.938 87.3967V89.6529C238.938 90.0816 238.591 90.4292 238.162 90.4292C237.733 90.4292 237.386 90.0816 237.386 89.6529V87.3967ZM19.3258 72.2707C19.6672 72.5318 19.7307 73.0197 19.4799 73.3688C18.5605 74.6485 17.7626 76.0229 17.1053 77.4729C16.9286 77.8628 16.4761 78.0509 16.0807 77.8867C15.6856 77.7226 15.4971 77.2688 15.6729 76.8788C16.384 75.3009 17.2497 73.8066 18.251 72.4184C18.5009 72.0719 18.9878 72.0096 19.3258 72.2707ZM233.031 72.2707C233.369 72.0096 233.856 72.0719 234.106 72.4184C235.107 73.8066 235.973 75.3009 236.684 76.8788C236.86 77.2688 236.671 77.7226 236.276 77.8867C235.881 78.0509 235.428 77.8628 235.252 77.4729C234.594 76.0229 233.796 74.6485 232.877 73.3688C232.626 73.0197 232.69 72.5318 233.031 72.2707ZM29.527 64.4405C29.6911 64.8359 29.503 65.2883 29.1131 65.4651C27.6632 66.1224 26.2888 66.9202 25.009 67.8397C24.66 68.0905 24.172 68.027 23.9109 67.6856C23.6499 67.3475 23.7122 66.8607 24.0586 66.6108C25.4469 65.6094 26.9412 64.7437 28.519 64.0327C28.9091 63.8569 29.3629 64.0454 29.527 64.4405ZM222.83 64.4405C222.994 64.0454 223.448 63.8569 223.838 64.0327C225.416 64.7437 226.91 65.6094 228.298 66.6108C228.645 66.8607 228.707 67.3475 228.446 67.6856C228.185 68.027 227.697 68.0905 227.348 67.8397C226.068 66.9202 224.694 66.1224 223.244 65.4651C222.854 65.2883 222.666 64.8359 222.83 64.4405ZM41.372 61.7783C41.8007 61.7783 42.1483 62.1259 42.1483 62.5546C42.1483 62.9834 41.8007 63.3309 41.372 63.3309H39.037C38.2362 63.3309 37.4449 63.3717 36.6647 63.4489C36.2386 63.4911 35.8494 63.1939 35.7926 62.7695C35.7355 62.3431 36.0356 61.9502 36.4637 61.9073C37.3102 61.8225 38.1695 61.7783 39.037 61.7783H41.372ZM213.32 61.7783C214.187 61.7783 215.047 61.8225 215.893 61.9073C216.321 61.9502 216.621 62.3431 216.564 62.7695C216.507 63.1939 216.118 63.4911 215.692 63.4489C214.912 63.3717 214.121 63.3309 213.32 63.3309H210.985C210.556 63.3309 210.209 62.9834 210.209 62.5546C210.209 62.1259 210.556 61.7783 210.985 61.7783H213.32ZM53.8234 61.7783C54.2521 61.7783 54.5997 62.1259 54.5997 62.5546C54.5997 62.9834 54.2521 63.3309 53.8234 63.3309H49.1473C48.7185 63.3309 48.371 62.9834 48.371 62.5546C48.371 62.1259 48.7185 61.7783 49.1473 61.7783H53.8234Z" fill="#FFA959"/>
</g>
<g filter="url(#filter6_ii_9_718)">
<rect x="88.235" y="165.758" width="82.0954" height="82.0954" rx="9.31579" fill="#88542C"/>
</g>
<g filter="url(#filter7_ii_9_718)">
<path fill-rule="evenodd" clip-rule="evenodd" d="M151.958 188.284C153.005 188.708 154.106 187.806 153.896 186.697L152.006 176.678C151.813 175.657 150.628 175.178 149.78 175.778L141.463 181.66C140.542 182.312 140.706 183.724 141.752 184.148L143.545 184.874L140.312 192.992C137.213 186.802 130.792 182.555 123.412 182.555C112.955 182.555 104.483 191.027 104.483 201.476C104.483 206.127 106.155 210.383 108.942 213.677L117.836 200.985C118.058 200.668 118.512 200.629 118.785 200.903L124.628 206.77C124.929 207.071 125.436 206.988 125.625 206.607L131.503 194.733C131.691 194.353 132.195 194.269 132.496 194.566L140.981 202.953L142.252 199.767L147.514 186.482L151.958 188.284Z" fill="#B27945"/>
<path d="M133.289 217.132C133.289 216.54 133.6 215.996 134.088 215.662C136.451 214.041 138.419 211.902 139.844 209.405L134.303 203.946C134.001 203.649 133.497 203.734 133.31 204.114L128.077 214.714C127.561 215.761 126.168 215.989 125.345 215.161L119.654 209.44C119.381 209.166 118.927 209.205 118.705 209.521L113.312 217.208V220.901C113.312 223.265 115.228 225.182 117.593 225.182H129.008C131.372 225.182 133.289 223.265 133.289 220.901V217.132Z" fill="#B27945"/>
<path d="M116.902 227.835C116.902 227.144 117.462 226.584 118.153 226.584H129.117C129.808 226.584 130.368 227.144 130.368 227.835C130.368 228.526 129.808 229.086 129.117 229.086H118.153C117.462 229.086 116.902 228.526 116.902 227.835Z" fill="#B27945"/>
<path d="M116.902 231.335C116.902 230.644 117.462 230.084 118.153 230.084H129.117C129.808 230.084 130.368 230.644 130.368 231.335C130.368 232.026 129.808 232.587 129.117 232.587H118.153C117.462 232.587 116.902 232.026 116.902 231.335Z" fill="#B27945"/>
<path d="M123.39 238.088C125.877 238.088 127.893 236.072 127.893 233.585H118.886C118.886 236.072 120.902 238.088 123.39 238.088Z" fill="#B27945"/>
</g>
<defs>
<filter id="filter0_d_9_718" x="-7.62939e-06" y="-7.62939e-06" width="258.358" height="258.358" filterUnits="userSpaceOnUse" color-interpolation-filters="sRGB">
<feFlood flood-opacity="0" result="BackgroundImageFix"/>
<feColorMatrix in="SourceAlpha" type="matrix" values="0 0 0 0 0 0 0 0 0 0 0 0 0 0 0 0 0 0 127 0" result="hardAlpha"/>
<feOffset/>
<feGaussianBlur stdDeviation="14.9053"/>
<feComposite in2="hardAlpha" operator="out"/>
<feColorMatrix type="matrix" values="0 0 0 0 0 0 0 0 0 0 0 0 0 0 0 0 0 0 0.25 0"/>
<feBlend mode="normal" in2="BackgroundImageFix" result="effect1_dropShadow_9_718"/>
<feBlend mode="normal" in="SourceGraphic" in2="effect1_dropShadow_9_718" result="shape"/>
</filter>
<filter id="filter1_ii_9_718" x="29.8105" y="28.109" width="201.119" height="203.161" filterUnits="userSpaceOnUse" color-interpolation-filters="sRGB">
<feFlood flood-opacity="0" result="BackgroundImageFix"/>
<feBlend mode="normal" in="SourceGraphic" in2="BackgroundImageFix" result="shape"/>
<feColorMatrix in="SourceAlpha" type="matrix" values="0 0 0 0 0 0 0 0 0 0 0 0 0 0 0 0 0 0 127 0" result="hardAlpha"/>
<feOffset dx="2.38212" dy="2.72242"/>
<feGaussianBlur stdDeviation="1.36121"/>
<feComposite in2="hardAlpha" operator="arithmetic" k2="-1" k3="1"/>
<feColorMatrix type="matrix" values="0 0 0 0 0.949843 0 0 0 0 0.949843 0 0 0 0 0.774058 0 0 0 0.95 0"/>
<feBlend mode="normal" in2="shape" result="effect1_innerShadow_9_718"/>
<feColorMatrix in="SourceAlpha" type="matrix" values="0 0 0 0 0 0 0 0 0 0 0 0 0 0 0 0 0 0 127 0" result="hardAlpha"/>
<feOffset dy="-2.38212"/>
<feGaussianBlur stdDeviation="0.850757"/>
<feComposite in2="hardAlpha" operator="arithmetic" k2="-1" k3="1"/>
<feColorMatrix type="matrix" values="0 0 0 0 0 0 0 0 0 0.0462675 0 0 0 0 0.0645593 0 0 0 0.25 0"/>
<feBlend mode="normal" in2="effect1_innerShadow_9_718" result="effect2_innerShadow_9_718"/>
</filter>
<filter id="filter2_ii_9_718" x="34.8032" y="34.8112" width="187.032" height="187.032" filterUnits="userSpaceOnUse" color-interpolation-filters="sRGB">
<feFlood flood-opacity="0" result="BackgroundImageFix"/>
<feBlend mode="normal" in="SourceGraphic" in2="BackgroundImageFix" result="shape"/>
<feColorMatrix in="SourceAlpha" type="matrix" values="0 0 0 0 0 0 0 0 0 0 0 0 0 0 0 0 0 0 127 0" result="hardAlpha"/>
<feOffset dx="2.38212" dy="2.72242"/>
<feComposite in2="hardAlpha" operator="arithmetic" k2="-1" k3="1"/>
<feColorMatrix type="matrix" values="0 0 0 0 0.0873622 0 0 0 0 0 0 0 0 0 0.218406 0 0 0 0.25 0"/>
<feBlend mode="normal" in2="shape" result="effect1_innerShadow_9_718"/>
<feColorMatrix in="SourceAlpha" type="matrix" values="0 0 0 0 0 0 0 0 0 0 0 0 0 0 0 0 0 0 127 0" result="hardAlpha"/>
<feOffset dx="-2.72242" dy="-2.38212"/>
<feGaussianBlur stdDeviation="0.850757"/>
<feComposite in2="hardAlpha" operator="arithmetic" k2="-1" k3="1"/>
<feColorMatrix type="matrix" values="0 0 0 0 1 0 0 0 0 1 0 0 0 0 1 0 0 0 0.25 0"/>
<feBlend mode="normal" in2="effect1_innerShadow_9_718" result="effect2_innerShadow_9_718"/>
</filter>
<filter id="filter3_ii_9_718" x="107.382" y="113.845" width="44.3616" height="31.6842" filterUnits="userSpaceOnUse" color-interpolation-filters="sRGB">
<feFlood flood-opacity="0" result="BackgroundImageFix"/>
<feBlend mode="normal" in="SourceGraphic" in2="BackgroundImageFix" result="shape"/>
<feColorMatrix in="SourceAlpha" type="matrix" values="0 0 0 0 0 0 0 0 0 0 0 0 0 0 0 0 0 0 127 0" result="hardAlpha"/>
<feOffset dy="1.36121"/>
<feGaussianBlur stdDeviation="0.850757"/>
<feComposite in2="hardAlpha" operator="arithmetic" k2="-1" k3="1"/>
<feColorMatrix type="matrix" values="0 0 0 0 1 0 0 0 0 1 0 0 0 0 1 0 0 0 0.95 0"/>
<feBlend mode="normal" in2="shape" result="effect1_innerShadow_9_718"/>
<feColorMatrix in="SourceAlpha" type="matrix" values="0 0 0 0 0 0 0 0 0 0 0 0 0 0 0 0 0 0 127 0" result="hardAlpha"/>
<feOffset dy="-1.70151"/>
<feGaussianBlur stdDeviation="1.02091"/>
<feComposite in2="hardAlpha" operator="arithmetic" k2="-1" k3="1"/>
<feColorMatrix type="matrix" values="0 0 0 0 0.19205 0 0 0 0 0.542839 0 0 0 0 0.425909 0 0 0 0.36 0"/>
<feBlend mode="normal" in2="effect1_innerShadow_9_718" result="effect2_innerShadow_9_718"/>
</filter>
<filter id="filter4_diii_9_718" x="1.96584" y="137.718" width="248.421" height="131.197" filterUnits="userSpaceOnUse" color-interpolation-filters="sRGB">
<feFlood flood-opacity="0" result="BackgroundImageFix"/>
<feColorMatrix in="SourceAlpha" type="matrix" values="0 0 0 0 0 0 0 0 0 0 0 0 0 0 0 0 0 0 127 0" result="hardAlpha"/>
<feOffset dy="-3.10526"/>
<feGaussianBlur stdDeviation="3.10526"/>
<feComposite in2="hardAlpha" operator="out"/>
<feColorMatrix type="matrix" values="0 0 0 0 0.081043 0 0 0 0 0.022829 0 0 0 0 0 0 0 0 0.35 0"/>
<feBlend mode="normal" in2="BackgroundImageFix" result="effect1_dropShadow_9_718"/>
<feBlend mode="normal" in="SourceGraphic" in2="effect1_dropShadow_9_718" result="shape"/>
<feColorMatrix in="SourceAlpha" type="matrix" values="0 0 0 0 0 0 0 0 0 0 0 0 0 0 0 0 0 0 127 0" result="hardAlpha"/>
<feOffset dx="6.21053"/>
<feGaussianBlur stdDeviation="6.21053"/>
<feComposite in2="hardAlpha" operator="arithmetic" k2="-1" k3="1"/>
<feColorMatrix type="matrix" values="0 0 0 0 0 0 0 0 0 0 0 0 0 0 0 0 0 0 0.25 0"/>
<feBlend mode="normal" in2="shape" result="effect2_innerShadow_9_718"/>
<feColorMatrix in="SourceAlpha" type="matrix" values="0 0 0 0 0 0 0 0 0 0 0 0 0 0 0 0 0 0 127 0" result="hardAlpha"/>
<feOffset dx="-6.21053"/>
<feGaussianBlur stdDeviation="6.21053"/>
<feComposite in2="hardAlpha" operator="arithmetic" k2="-1" k3="1"/>
<feColorMatrix type="matrix" values="0 0 0 0 0 0 0 0 0 0 0 0 0 0 0 0 0 0 0.25 0"/>
<feBlend mode="normal" in2="effect2_innerShadow_9_718" result="effect3_innerShadow_9_718"/>
<feColorMatrix in="SourceAlpha" type="matrix" values="0 0 0 0 0 0 0 0 0 0 0 0 0 0 0 0 0 0 127 0" result="hardAlpha"/>
<feOffset dy="12.4211"/>
<feGaussianBlur stdDeviation="1.55263"/>
<feComposite in2="hardAlpha" operator="arithmetic" k2="-1" k3="1"/>
<feColorMatrix type="matrix" values="0 0 0 0 0 0 0 0 0 0 0 0 0 0 0 0 0 0 0.25 0"/>
<feBlend mode="normal" in2="effect3_innerShadow_9_718" result="effect4_innerShadow_9_718"/>
</filter>
<filter id="filter5_di_9_718" x="12.7975" y="61.7783" width="226.762" height="198.147" filterUnits="userSpaceOnUse" color-interpolation-filters="sRGB">
<feFlood flood-opacity="0" result="BackgroundImageFix"/>
<feColorMatrix in="SourceAlpha" type="matrix" values="0 0 0 0 0 0 0 0 0 0 0 0 0 0 0 0 0 0 127 0" result="hardAlpha"/>
<feOffset dy="0.621053"/>
<feGaussianBlur stdDeviation="0.310526"/>
<feComposite in2="hardAlpha" operator="out"/>
<feColorMatrix type="matrix" values="0 0 0 0 0 0 0 0 0 0 0 0 0 0 0 0 0 0 0.25 0"/>
<feBlend mode="normal" in2="BackgroundImageFix" result="effect1_dropShadow_9_718"/>
<feBlend mode="normal" in="SourceGraphic" in2="effect1_dropShadow_9_718" result="shape"/>
<feColorMatrix in="SourceAlpha" type="matrix" values="0 0 0 0 0 0 0 0 0 0 0 0 0 0 0 0 0 0 127 0" result="hardAlpha"/>
<feOffset dy="0.621053"/>
<feGaussianBlur stdDeviation="0.310526"/>
<feComposite in2="hardAlpha" operator="arithmetic" k2="-1" k3="1"/>
<feColorMatrix type="matrix" values="0 0 0 0 1 0 0 0 0 1 0 0 0 0 1 0 0 0 0.51 0"/>
<feBlend mode="normal" in2="shape" result="effect2_innerShadow_9_718"/>
</filter>
<filter id="filter6_ii_9_718" x="88.235" y="164.516" width="82.0954" height="84.8901" filterUnits="userSpaceOnUse" color-interpolation-filters="sRGB">
<feFlood flood-opacity="0" result="BackgroundImageFix"/>
<feBlend mode="normal" in="SourceGraphic" in2="BackgroundImageFix" result="shape"/>
<feColorMatrix in="SourceAlpha" type="matrix" values="0 0 0 0 0 0 0 0 0 0 0 0 0 0 0 0 0 0 127 0" result="hardAlpha"/>
<feOffset dy="1.55263"/>
<feGaussianBlur stdDeviation="0.776316"/>
<feComposite in2="hardAlpha" operator="arithmetic" k2="-1" k3="1"/>
<feColorMatrix type="matrix" values="0 0 0 0 0 0 0 0 0 0 0 0 0 0 0 0 0 0 0.25 0"/>
<feBlend mode="normal" in2="shape" result="effect1_innerShadow_9_718"/>
<feColorMatrix in="SourceAlpha" type="matrix" values="0 0 0 0 0 0 0 0 0 0 0 0 0 0 0 0 0 0 127 0" result="hardAlpha"/>
<feOffset dy="-1.55263"/>
<feGaussianBlur stdDeviation="0.621053"/>
<feComposite in2="hardAlpha" operator="arithmetic" k2="-1" k3="1"/>
<feColorMatrix type="matrix" values="0 0 0 0 1 0 0 0 0 1 0 0 0 0 1 0 0 0 0.5 0"/>
<feBlend mode="normal" in2="effect1_innerShadow_9_718" result="effect2_innerShadow_9_718"/>
</filter>
<filter id="filter7_ii_9_718" x="104.483" y="174.894" width="49.4395" height="63.8158" filterUnits="userSpaceOnUse" color-interpolation-filters="sRGB">
<feFlood flood-opacity="0" result="BackgroundImageFix"/>
<feBlend mode="normal" in="SourceGraphic" in2="BackgroundImageFix" result="shape"/>
<feColorMatrix in="SourceAlpha" type="matrix" values="0 0 0 0 0 0 0 0 0 0 0 0 0 0 0 0 0 0 127 0" result="hardAlpha"/>
<feOffset dy="0.621053"/>
<feGaussianBlur stdDeviation="0.621053"/>
<feComposite in2="hardAlpha" operator="arithmetic" k2="-1" k3="1"/>
<feColorMatrix type="matrix" values="0 0 0 0 1 0 0 0 0 1 0 0 0 0 1 0 0 0 0.45 0"/>
<feBlend mode="normal" in2="shape" result="effect1_innerShadow_9_718"/>
<feColorMatrix in="SourceAlpha" type="matrix" values="0 0 0 0 0 0 0 0 0 0 0 0 0 0 0 0 0 0 127 0" result="hardAlpha"/>
<feOffset dy="-0.621053"/>
<feGaussianBlur stdDeviation="0.310526"/>
<feComposite in2="hardAlpha" operator="arithmetic" k2="-1" k3="1"/>
<feColorMatrix type="matrix" values="0 0 0 0 0 0 0 0 0 0 0 0 0 0 0 0 0 0 0.25 0"/>
<feBlend mode="normal" in2="effect1_innerShadow_9_718" result="effect2_innerShadow_9_718"/>
</filter>
<linearGradient id="paint0_linear_9_718" x1="77.856" y1="50.9399" x2="186.63" y2="215.033" gradientUnits="userSpaceOnUse">
<stop stop-color="#F6C218"/>
<stop offset="1" stop-color="#1A97A4"/>
</linearGradient>
<linearGradient id="paint1_linear_9_718" x1="81.3092" y1="56.2167" x2="182.746" y2="209.241" gradientUnits="userSpaceOnUse">
<stop stop-color="#F6C218"/>
<stop offset="1" stop-color="#1A97A4"/>
</linearGradient>
<linearGradient id="paint2_linear_9_718" x1="81.3282" y1="56.2167" x2="182.765" y2="209.241" gradientUnits="userSpaceOnUse">
<stop stop-color="#F6C218"/>
<stop offset="1" stop-color="#1A97A4"/>
</linearGradient>
<linearGradient id="paint3_linear_9_718" x1="113.777" y1="122.119" x2="116.004" y2="142.065" gradientUnits="userSpaceOnUse">
<stop stop-color="#EDDA76"/>
<stop offset="1" stop-color="#94E093"/>
</linearGradient>
</defs>
</svg>
