<svg preserveAspectRatio="none" width="100%" height="100%" overflow="visible" style="display: block;" viewBox="0 0 20 20" fill="none" xmlns="http://www.w3.org/2000/svg">
<g id="kid_star">
<mask id="mask0_521_16980" style="mask-type:alpha" maskUnits="userSpaceOnUse" x="0" y="0" width="20" height="20">
<rect id="Bounding box" width="20" height="20" fill="var(--fill-0, #D9D9D9)"/>
</mask>
<g mask="url(#mask0_521_16980)">
<path id="kid_star_2" d="M6.35417 5.33333L8.6875 2.3125C8.85417 2.09028 9.05208 1.92708 9.28125 1.82292C9.51042 1.71875 9.75 1.66667 10 1.66667C10.25 1.66667 10.4896 1.71875 10.7188 1.82292C10.9479 1.92708 11.1458 2.09028 11.3125 2.3125L13.6458 5.33333L17.1875 6.52083C17.5486 6.63194 17.8333 6.83681 18.0417 7.13542C18.25 7.43403 18.3542 7.76389 18.3542 8.125C18.3542 8.29167 18.3299 8.45833 18.2813 8.625C18.2326 8.79167 18.1528 8.95139 18.0417 9.10417L15.75 12.3542L15.8333 15.7708C15.8472 16.2569 15.6875 16.6667 15.3542 17C15.0208 17.3333 14.6319 17.5 14.1875 17.5C14.1597 17.5 14.0069 17.4792 13.7292 17.4375L10 16.3958L6.27083 17.4375C6.20139 17.4653 6.125 17.4826 6.04167 17.4896C5.95833 17.4965 5.88194 17.5 5.8125 17.5C5.36806 17.5 4.97917 17.3333 4.64583 17C4.3125 16.6667 4.15278 16.2569 4.16667 15.7708L4.25 12.3333L1.97917 9.10417C1.86806 8.95139 1.78819 8.79167 1.73958 8.625C1.69097 8.45833 1.66667 8.29167 1.66667 8.125C1.66667 7.77778 1.76736 7.45486 1.96875 7.15625C2.17014 6.85764 2.45139 6.64583 2.8125 6.52083L6.35417 5.33333Z" fill="var(--fill-0, #FFD70E)"/>
</g>
</g>
</svg>
