<svg width="161" height="160" viewBox="0 0 161 160" fill="none" xmlns="http://www.w3.org/2000/svg">
<g filter="url(#filter0_ii_75_8395)">
<circle cx="80.5" cy="80" r="80" fill="url(#paint0_linear_75_8395)"/>
</g>
<g filter="url(#filter1_ii_75_8395)">
<circle cx="80.5019" cy="80" r="74.6035" fill="url(#paint1_linear_75_8395)"/>
</g>
<mask id="mask0_75_8395" style="mask-type:alpha" maskUnits="userSpaceOnUse" x="5" y="5" width="151" height="150">
<circle cx="80.5019" cy="80" r="74.6035" fill="url(#paint2_linear_75_8395)"/>
</mask>
<g mask="url(#mask0_75_8395)">
<g style="mix-blend-mode:soft-light">
<rect x="0.416016" y="52.6891" width="65.7641" height="65.7641" rx="10" transform="rotate(45 0.416016 52.6891)" stroke="#D9D9D9" stroke-opacity="0.6" stroke-width="1.91781"/>
<rect x="160.689" y="52.6891" width="65.7641" height="65.7641" rx="10" transform="rotate(45 160.689 52.6891)" stroke="#D9D9D9" stroke-opacity="0.6" stroke-width="1.91781"/>
<rect x="0.416016" y="14.0587" width="65.7641" height="65.7641" rx="10" transform="rotate(45 0.416016 14.0587)" stroke="#D9D9D9" stroke-opacity="0.6" stroke-width="1.91781"/>
<rect x="160.689" y="14.0587" width="65.7641" height="65.7641" rx="10" transform="rotate(45 160.689 14.0587)" stroke="#D9D9D9" stroke-opacity="0.6" stroke-width="1.91781"/>
</g>
</g>
<g style="mix-blend-mode:lighten" filter="url(#filter2_ii_75_8395)">
<path d="M76.0278 116.163V56.1647L61.3941 57.2622L60.5405 46.8968L92.1247 43.2383V116.163H76.0278Z" fill="url(#paint3_linear_75_8395)"/>
</g>
<g style="mix-blend-mode:overlay">
<path d="M30.3123 123.409L32.8711 121.262L33.2318 120.874L33.8742 121.639L32.8146 124.468L35.8184 123.956L36.389 124.636L33.4273 127.122L32.8694 126.457L34.7482 124.88L34.7017 124.825L34.0986 124.996L32.4277 125.317L31.9163 124.707L32.5221 123.117L32.7913 122.548L32.749 122.498L30.8702 124.074L30.3123 123.409Z" fill="white"/>
<path d="M35.5203 129.129L36.6437 127.984L36.8615 125.029L37.6126 125.766L37.4464 127.325L37.3769 127.828L37.4238 127.874L37.9252 127.795L39.481 127.598L40.2321 128.335L39.7727 128.437L37.245 128.61L36.14 129.737L35.5203 129.129Z" fill="white"/>
<path d="M43.6711 135.923L47.4053 133.752L48.4875 134.463L47.9671 138.749L47.1211 138.192L47.2559 137.281L45.2891 135.988L44.4732 136.451L43.6711 135.923ZM45.841 135.58L47.4067 136.609L47.6405 134.615L47.5855 134.579L45.841 135.58Z" fill="white"/>
<path d="M49.4973 139.515L51.054 136.559L51.241 136.063L52.0787 136.505L52.9658 139.618L53.0272 140.051L53.0912 140.085L54.3476 137.7L55.1155 138.104L53.3137 141.525L52.5748 141.136L51.6596 137.963L51.5767 137.571L51.5186 137.54L50.2652 139.919L49.4973 139.515Z" fill="white"/>
<path d="M54.5438 141.996L57.7896 139.145L58.9887 139.635L59.3038 143.94L58.3664 143.557L58.3231 142.638L56.144 141.747L55.4325 142.359L54.5438 141.996ZM56.6068 141.24L58.3416 141.949L58.1866 139.947L58.1257 139.922L56.6068 141.24Z" fill="white"/>
<path d="M60.8509 144.317L61.0647 143.832L62.0227 140.632L62.8542 140.881L61.9264 143.98L64.5342 144.761L64.6259 145.372C64.6208 145.389 64.5591 145.389 64.4407 145.371C64.3236 145.35 64.1264 145.298 63.8492 145.215L60.8509 144.317Z" fill="white"/>
<path d="M68.2591 146.114L68.5683 144.539L67.1266 141.951L68.159 142.154L68.8769 143.548L69.0952 144.006L69.1597 144.019L69.535 143.677L70.7269 142.658L71.7592 142.861L71.4316 143.199L69.4149 144.732L69.1108 146.281L68.2591 146.114Z" fill="white"/>
<path d="M74.2408 146.857L74.5481 143.63L72.8465 143.464L72.9076 142.836L77.1877 143.252L77.1266 143.88L75.4185 143.714L75.1047 146.941L74.2408 146.857Z" fill="white"/>
<path d="M79.0709 146.994V143.127H79.9389V146.994H79.0709Z" fill="white"/>
<path d="M84.5215 147.048C84.2117 147.079 83.9653 147.058 83.7823 146.988C83.5993 146.918 83.4644 146.799 83.3777 146.631C83.2909 146.463 83.235 146.251 83.2099 145.993L83.068 144.534C83.0272 144.115 83.0911 143.798 83.2596 143.584C83.4277 143.365 83.7234 143.235 84.1466 143.194L86.1165 143.002C86.4175 142.973 86.6483 142.968 86.8087 142.988C86.9731 143.002 87.057 143.027 87.0604 143.062L86.9824 143.618C86.9069 143.612 86.6853 143.621 86.3175 143.643C85.9537 143.661 85.4249 143.704 84.7312 143.771L84.3975 143.804C84.0484 143.838 83.889 144.009 83.9191 144.319L84.0814 145.988C84.0959 146.136 84.1442 146.248 84.2264 146.324C84.3126 146.395 84.4539 146.421 84.6502 146.402L84.9185 146.376C85.6428 146.305 86.2028 146.244 86.5985 146.192C86.9982 146.136 87.2452 146.094 87.3395 146.067L87.6498 146.473C87.652 146.495 87.6181 146.531 87.5481 146.582C87.4826 146.633 87.3555 146.685 87.1669 146.738C86.9783 146.792 86.703 146.836 86.3409 146.871L84.5215 147.048Z" fill="white"/>
<path d="M90.5585 146.547C90.266 146.604 90.0484 146.634 89.9057 146.635C89.763 146.636 89.6882 146.62 89.6815 146.585L89.8293 145.973C89.9316 145.971 90.1802 145.94 90.575 145.88C90.9732 145.816 91.5165 145.716 92.2047 145.58L92.3273 145.556C92.5123 145.52 92.6371 145.462 92.7019 145.382C92.7658 145.298 92.7821 145.177 92.7508 145.017L92.7255 144.888C92.6959 144.738 92.6426 144.637 92.5654 144.585C92.4925 144.532 92.3485 144.527 92.1334 144.569L90.6365 144.863C90.2021 144.948 89.8703 144.931 89.6412 144.811C89.4112 144.686 89.2603 144.441 89.1885 144.075L89.1683 143.972C89.1311 143.783 89.1313 143.602 89.1689 143.429C89.2107 143.256 89.3084 143.105 89.4619 142.976C89.6145 142.844 89.8414 142.748 90.1425 142.689L91.8974 142.344C92.1899 142.286 92.4294 142.255 92.616 142.25C92.8026 142.244 92.8993 142.259 92.906 142.293L92.8834 142.861C92.769 142.87 92.5127 142.906 92.1145 142.971C91.7154 143.032 91.1824 143.128 90.5157 143.258L90.4435 143.266C90.2456 143.305 90.1203 143.372 90.0675 143.467C90.0139 143.558 89.9968 143.664 90.0161 143.785L90.0377 143.895C90.0656 144.037 90.1254 144.137 90.2172 144.195C90.3124 144.248 90.4525 144.256 90.6375 144.22L92.0698 143.938C92.3451 143.884 92.585 143.866 92.7896 143.884C92.9941 143.902 93.1628 143.976 93.2956 144.106C93.4276 144.232 93.5218 144.439 93.5784 144.728L93.5987 144.831C93.6621 145.153 93.6293 145.43 93.5004 145.661C93.3758 145.891 93.1092 146.046 92.7006 146.126L90.5585 146.547Z" fill="white"/>
<path d="M102.973 143.59C102.697 143.703 102.489 143.774 102.349 143.803C102.209 143.831 102.133 143.829 102.119 143.797L102.146 143.168C102.246 143.146 102.484 143.068 102.86 142.933C103.239 142.793 103.752 142.59 104.402 142.325L104.517 142.277C104.692 142.206 104.803 142.125 104.851 142.034C104.898 141.94 104.89 141.817 104.829 141.667L104.779 141.545C104.721 141.403 104.649 141.314 104.564 141.278C104.482 141.241 104.34 141.263 104.137 141.346L102.725 141.923C102.315 142.091 101.986 142.137 101.738 142.063C101.488 141.985 101.293 141.774 101.152 141.429L101.112 141.332C101.039 141.153 101.005 140.976 101.008 140.799C101.016 140.621 101.082 140.454 101.208 140.298C101.333 140.138 101.537 140.001 101.821 139.884L103.476 139.208C103.752 139.095 103.981 139.018 104.163 138.977C104.345 138.936 104.443 138.932 104.456 138.964L104.543 139.525C104.433 139.556 104.189 139.642 103.81 139.782C103.43 139.918 102.926 140.115 102.297 140.372L102.227 140.393C102.041 140.469 101.931 140.559 101.897 140.663C101.862 140.763 101.866 140.87 101.908 140.985L101.95 141.089C102.005 141.223 102.083 141.309 102.184 141.348C102.288 141.382 102.427 141.363 102.602 141.291L103.953 140.739C104.213 140.633 104.444 140.569 104.649 140.547C104.853 140.526 105.033 140.566 105.188 140.668C105.342 140.766 105.474 140.951 105.585 141.223L105.625 141.321C105.749 141.625 105.771 141.903 105.689 142.154C105.611 142.404 105.379 142.607 104.993 142.765L102.973 143.59Z" fill="white"/>
<path d="M109.184 141.019C108.908 141.164 108.673 141.238 108.477 141.242C108.281 141.247 108.111 141.187 107.967 141.065C107.823 140.943 107.691 140.767 107.571 140.538L106.887 139.241C106.691 138.868 106.63 138.551 106.705 138.289C106.778 138.022 107.003 137.79 107.379 137.592L109.13 136.67C109.397 136.529 109.609 136.437 109.765 136.394C109.923 136.346 110.01 136.337 110.026 136.368L110.164 136.912C110.092 136.936 109.89 137.027 109.558 137.187C109.228 137.341 108.755 137.581 108.138 137.905L107.842 138.062C107.531 138.225 107.449 138.445 107.594 138.72L108.375 140.203C108.445 140.335 108.532 140.421 108.637 140.46C108.743 140.493 108.884 140.463 109.058 140.371L109.297 140.246C109.941 139.907 110.436 139.638 110.783 139.441C111.131 139.237 111.344 139.105 111.421 139.045L111.862 139.303C111.872 139.322 111.855 139.369 111.809 139.442C111.768 139.514 111.67 139.61 111.515 139.731C111.361 139.852 111.123 139.997 110.801 140.167L109.184 141.019Z" fill="white"/>
<path d="M113.77 138.645L111.646 135.415L112.371 134.938L113.253 136.278L115.406 134.862L114.524 133.522L115.25 133.045L117.374 136.275L116.649 136.752L115.753 135.389L113.599 136.806L114.495 138.168L113.77 138.645Z" fill="white"/>
<path d="M119.892 134.475C119.653 134.667 119.438 134.785 119.247 134.827C119.055 134.868 118.875 134.844 118.707 134.755C118.542 134.662 118.379 134.515 118.217 134.314L117.263 133.132C117.103 132.934 116.997 132.746 116.944 132.569C116.889 132.389 116.902 132.209 116.983 132.031C117.062 131.849 117.222 131.661 117.465 131.465L118.959 130.26C119.198 130.067 119.413 129.953 119.604 129.918C119.795 129.876 119.973 129.901 120.138 129.993C120.303 130.08 120.466 130.222 120.625 130.42L121.579 131.602C121.821 131.902 121.939 132.185 121.933 132.449C121.923 132.71 121.741 132.983 121.387 133.269L119.892 134.475ZM119.644 133.864L120.847 132.894C120.973 132.792 121.044 132.681 121.06 132.561C121.08 132.439 121.044 132.321 120.953 132.208L119.9 130.903C119.821 130.804 119.717 130.75 119.591 130.739C119.461 130.725 119.335 130.768 119.212 130.867L118.009 131.837C117.887 131.936 117.814 132.048 117.791 132.174C117.768 132.299 117.801 132.416 117.889 132.526L118.942 133.831C119.035 133.947 119.144 134.008 119.268 134.015C119.393 134.016 119.518 133.966 119.644 133.864Z" fill="white"/>
<path d="M124.66 130.415C124.441 130.63 124.239 130.768 124.052 130.828C123.865 130.888 123.684 130.882 123.508 130.809C123.335 130.733 123.158 130.602 122.977 130.418L121.914 129.333C121.736 129.152 121.612 128.976 121.542 128.804C121.469 128.63 121.465 128.45 121.529 128.265C121.589 128.076 121.731 127.873 121.953 127.655L123.324 126.311C123.543 126.096 123.746 125.962 123.932 125.908C124.119 125.847 124.299 125.855 124.471 125.931C124.644 126.001 124.82 126.127 124.998 126.308L126.061 127.393C126.331 127.668 126.476 127.938 126.495 128.201C126.511 128.462 126.357 128.752 126.031 129.071L124.66 130.415ZM124.355 129.831L125.458 128.749C125.574 128.636 125.634 128.519 125.638 128.398C125.645 128.274 125.598 128.16 125.497 128.057L124.323 126.86C124.234 126.769 124.126 126.725 123.999 126.727C123.869 126.725 123.747 126.78 123.634 126.89L122.531 127.972C122.419 128.083 122.357 128.202 122.347 128.329C122.336 128.456 122.38 128.569 122.478 128.669L123.652 129.866C123.756 129.973 123.871 130.023 123.995 130.018C124.119 130.007 124.239 129.945 124.355 129.831Z" fill="white"/>
<path d="M128.238 126.331L127.878 125.942L125.319 123.795L125.877 123.13L128.355 125.21L130.105 123.124L130.702 123.282C130.715 123.294 130.691 123.35 130.628 123.452C130.562 123.551 130.436 123.712 130.25 123.933L128.238 126.331Z" fill="white"/>
</g>
<g style="mix-blend-mode:soft-light">
<path d="M24.5791 55.0818L25.0271 57.0708C25.3687 58.5873 26.553 59.7716 28.0695 60.1132L30.0585 60.5612L28.0695 61.0093C26.553 61.3509 25.3687 62.5352 25.0271 64.0517L24.5791 66.0407L24.131 64.0517C23.7894 62.5352 22.6051 61.3509 21.0886 61.0093L19.0996 60.5612L21.0886 60.1132C22.6051 59.7716 23.7894 58.5873 24.131 57.0708L24.5791 55.0818Z" fill="#D9D9D9"/>
</g>
<g style="mix-blend-mode:soft-light">
<path d="M136.532 55.0818L136.084 57.0708C135.743 58.5873 134.558 59.7716 133.042 60.1132L131.053 60.5612L133.042 61.0093C134.558 61.3509 135.743 62.5352 136.084 64.0517L136.532 66.0407L136.98 64.0517C137.322 62.5352 138.506 61.3509 140.023 61.0093L142.012 60.5612L140.023 60.1132C138.506 59.7716 137.322 58.5873 136.98 57.0708L136.532 55.0818Z" fill="#D9D9D9"/>
</g>
<g style="mix-blend-mode:soft-light">
<path d="M24.5791 93.7119L25.0271 95.7009C25.3687 97.2174 26.553 98.4017 28.0695 98.7433L30.0585 99.1914L28.0695 99.6394C26.553 99.981 25.3687 101.165 25.0271 102.682L24.5791 104.671L24.131 102.682C23.7894 101.165 22.6051 99.981 21.0886 99.6394L19.0996 99.1914L21.0886 98.7433C22.6051 98.4017 23.7894 97.2174 24.131 95.7009L24.5791 93.7119Z" fill="#D9D9D9"/>
</g>
<g style="mix-blend-mode:soft-light">
<path d="M136.532 93.7119L136.084 95.7009C135.743 97.2174 134.558 98.4017 133.042 98.7433L131.053 99.1914L133.042 99.6394C134.558 99.981 135.743 101.165 136.084 102.682L136.532 104.671L136.98 102.682C137.322 101.165 138.506 99.981 140.023 99.6394L142.012 99.1914L140.023 98.7433C138.506 98.4017 137.322 97.2174 136.98 95.7009L136.532 93.7119Z" fill="#D9D9D9"/>
</g>
<g style="mix-blend-mode:soft-light">
<path d="M12.4228 74.4253L12.8709 76.4143C13.2125 77.9308 14.3968 79.1151 15.9133 79.4567L17.9023 79.9047L15.9133 80.3528C14.3968 80.6944 13.2125 81.8787 12.8709 83.3952L12.4228 85.3842L11.9748 83.3952C11.6332 81.8787 10.4489 80.6944 8.93233 80.3528L6.94336 79.9047L8.93233 79.4567C10.4489 79.1151 11.6332 77.9308 11.9748 76.4143L12.4228 74.4253Z" fill="#D9D9D9"/>
</g>
<g style="mix-blend-mode:soft-light">
<path d="M148.689 74.4253L148.24 76.4143C147.899 77.9308 146.715 79.1151 145.198 79.4567L143.209 79.9047L145.198 80.3528C146.715 80.6944 147.899 81.8787 148.24 83.3952L148.689 85.3842L149.137 83.3952C149.478 81.8787 150.662 80.6944 152.179 80.3528L154.168 79.9047L152.179 79.4567C150.662 79.1151 149.478 77.9308 149.137 76.4143L148.689 74.4253Z" fill="#D9D9D9"/>
</g>
<path d="M47.3311 26.7491L45.4405 22.7166L45.0634 22.1187L46.2699 21.5531L49.5526 23.8871L49.9214 19.8411L50.993 19.3386L53.1814 24.0062L52.1336 24.4974L50.7454 21.5366L50.6581 21.5775L50.6723 22.4133L50.5132 24.6762L49.5527 25.1265L47.7114 23.8015L47.0701 23.2597L46.9907 23.2969L48.3789 26.2578L47.3311 26.7491Z" fill="white"/>
<path d="M56.4441 21.9038L57.7548 16.2953L59.4353 15.897L63.1152 20.3227L61.8014 20.6341L61.0413 19.67L57.9873 20.3938L57.6896 21.6086L56.4441 21.9038ZM58.0963 19.485L60.5276 18.9088L58.8069 16.8568L58.7216 16.8771L58.0963 19.485Z" fill="white"/>
<path d="M69.1352 18.9492C68.7404 18.9954 68.4481 19.0119 68.2583 18.9988C68.0685 18.9857 67.9708 18.9559 67.9654 18.9094L68.2252 18.1111C68.3614 18.1188 68.695 18.1033 69.226 18.0648C69.7621 18.0198 70.4946 17.943 71.4234 17.8344L71.5889 17.8151C71.8385 17.7859 72.0105 17.7217 72.1048 17.6224C72.1984 17.5173 72.2327 17.3573 72.2076 17.1425L72.1872 16.9684C72.1635 16.7652 72.103 16.6252 72.0057 16.5483C71.9143 16.4707 71.7234 16.4488 71.4331 16.4828L69.4129 16.7189C68.8266 16.7874 68.3874 16.7299 68.0952 16.5463C67.8024 16.3569 67.6271 16.0155 67.5695 15.5221L67.5532 15.3828C67.5233 15.1273 67.5423 14.8868 67.6101 14.6611C67.6836 14.4348 67.8291 14.2442 68.0464 14.0894C68.263 13.9287 68.5745 13.8246 68.9808 13.7771L71.3493 13.5003C71.7441 13.4541 72.0658 13.4371 72.3143 13.4493C72.5629 13.4614 72.6899 13.4907 72.6953 13.5371L72.6067 14.289C72.4537 14.2892 72.1092 14.3118 71.573 14.3568C71.0362 14.396 70.3179 14.4682 69.4181 14.5734L69.3213 14.5759C69.0543 14.6071 68.8808 14.6833 68.8008 14.8044C68.7201 14.9198 68.6864 15.0591 68.6996 15.2223L68.7169 15.3703C68.7393 15.5619 68.8085 15.7009 68.9245 15.7874C69.0457 15.8674 69.231 15.8928 69.4807 15.8636L71.4138 15.6377C71.7853 15.5942 72.1061 15.595 72.3762 15.6399C72.6463 15.6849 72.8628 15.8008 73.0259 15.9877C73.1883 16.1688 73.2922 16.4538 73.3377 16.8427L73.354 16.9821C73.4049 17.4175 73.3327 17.7819 73.1375 18.0754C72.9481 18.3682 72.5777 18.5469 72.0262 18.6113L69.1352 18.9492Z" fill="white"/>
<path d="M80.8568 17.667C80.4418 17.667 80.1174 17.6085 79.8836 17.4916C79.6498 17.3748 79.4862 17.1994 79.3926 16.9656C79.2991 16.7318 79.2524 16.4425 79.2524 16.0977V14.1426C79.2524 13.5815 79.378 13.1695 79.6294 12.9064C79.8807 12.6376 80.2898 12.5032 80.8568 12.5032H83.4957C83.8989 12.5032 84.2058 12.5265 84.4162 12.5733C84.6325 12.6142 84.7406 12.658 84.7406 12.7048L84.5652 13.4325C84.4659 13.4149 84.1707 13.3974 83.6798 13.3799C83.1947 13.3565 82.4874 13.3448 81.5581 13.3448H81.111C80.6434 13.3448 80.4096 13.5523 80.4096 13.9673V16.2029C80.4096 16.4016 80.4593 16.5565 80.5587 16.6675C80.6639 16.7727 80.848 16.8253 81.111 16.8253H81.4705C82.4407 16.8253 83.1917 16.8166 83.7236 16.799C84.2613 16.7757 84.5945 16.7523 84.7231 16.7289L85.0825 17.3075C85.0825 17.3368 85.0328 17.3806 84.9335 17.439C84.8399 17.4975 84.6646 17.5501 84.4074 17.5969C84.1503 17.6436 83.7791 17.667 83.294 17.667H80.8568Z" fill="white"/>
<path d="M92.5836 18.5753C92.1772 18.5278 91.8647 18.4324 91.6461 18.2891C91.4274 18.1459 91.2823 17.9524 91.2108 17.7087C91.145 17.4656 91.1322 17.1728 91.1722 16.8303L91.4073 14.8188C91.4467 14.4821 91.526 14.206 91.6454 13.9904C91.7654 13.7691 91.9483 13.6139 92.1941 13.5249C92.4405 13.4302 92.7699 13.4069 93.182 13.455L95.7247 13.7522C96.1311 13.7997 96.4403 13.8977 96.6525 14.046C96.8711 14.1893 97.0133 14.3825 97.0791 14.6255C97.1513 14.8635 97.1677 15.1508 97.1284 15.4875L96.8933 17.499C96.8336 18.0099 96.6749 18.3856 96.4173 18.6261C96.1603 18.8609 95.73 18.943 95.1262 18.8725L92.5836 18.5753ZM92.9338 17.7688L94.9801 18.008C95.1949 18.0331 95.3668 17.9973 95.4958 17.9006C95.6306 17.8045 95.7092 17.6607 95.7316 17.4691L95.9912 15.2486C96.0108 15.0803 95.9665 14.9309 95.8582 14.8006C95.7505 14.6644 95.5922 14.5841 95.3832 14.5597L93.3368 14.3205C93.1279 14.2961 92.9531 14.3316 92.8124 14.4269C92.6718 14.5223 92.5907 14.6629 92.569 14.8486L92.3094 17.0691C92.2864 17.2665 92.3293 17.4275 92.4384 17.552C92.5539 17.6715 92.719 17.7437 92.9338 17.7688Z" fill="white"/>
<path d="M102.654 20.423L103.843 15.4069L104.969 15.6737L103.78 20.6899L102.654 20.423Z" fill="white"/>
<path d="M108.397 22.2749L110.321 18.2584L110.545 17.588L111.684 18.1334L113.024 22.2361L113.127 22.8108L113.214 22.8524L114.767 19.6107L115.811 20.1107L113.584 24.7598L112.58 24.2787L111.199 20.0984L111.069 19.579L110.99 19.5412L109.441 22.7749L108.397 22.2749Z" fill="white"/>
<defs>
<filter id="filter0_ii_75_8395" x="0.5" y="-1.36986" width="161.918" height="163.562" filterUnits="userSpaceOnUse" color-interpolation-filters="sRGB">
<feFlood flood-opacity="0" result="BackgroundImageFix"/>
<feBlend mode="normal" in="SourceGraphic" in2="BackgroundImageFix" result="shape"/>
<feColorMatrix in="SourceAlpha" type="matrix" values="0 0 0 0 0 0 0 0 0 0 0 0 0 0 0 0 0 0 127 0" result="hardAlpha"/>
<feOffset dx="1.91781" dy="2.19178"/>
<feGaussianBlur stdDeviation="1.09589"/>
<feComposite in2="hardAlpha" operator="arithmetic" k2="-1" k3="1"/>
<feColorMatrix type="matrix" values="0 0 0 0 0.949843 0 0 0 0 0.949843 0 0 0 0 0.774058 0 0 0 0.95 0"/>
<feBlend mode="normal" in2="shape" result="effect1_innerShadow_75_8395"/>
<feColorMatrix in="SourceAlpha" type="matrix" values="0 0 0 0 0 0 0 0 0 0 0 0 0 0 0 0 0 0 127 0" result="hardAlpha"/>
<feOffset dy="-1.91781"/>
<feGaussianBlur stdDeviation="0.684931"/>
<feComposite in2="hardAlpha" operator="arithmetic" k2="-1" k3="1"/>
<feColorMatrix type="matrix" values="0 0 0 0 0 0 0 0 0 0.0462675 0 0 0 0 0.0645593 0 0 0 0.25 0"/>
<feBlend mode="normal" in2="effect1_innerShadow_75_8395" result="effect2_innerShadow_75_8395"/>
</filter>
<filter id="filter1_ii_75_8395" x="4.52857" y="4.02662" width="150.577" height="150.577" filterUnits="userSpaceOnUse" color-interpolation-filters="sRGB">
<feFlood flood-opacity="0" result="BackgroundImageFix"/>
<feBlend mode="normal" in="SourceGraphic" in2="BackgroundImageFix" result="shape"/>
<feColorMatrix in="SourceAlpha" type="matrix" values="0 0 0 0 0 0 0 0 0 0 0 0 0 0 0 0 0 0 127 0" result="hardAlpha"/>
<feOffset dx="1.91781" dy="2.19178"/>
<feComposite in2="hardAlpha" operator="arithmetic" k2="-1" k3="1"/>
<feColorMatrix type="matrix" values="0 0 0 0 0.0873622 0 0 0 0 0 0 0 0 0 0.218406 0 0 0 0.25 0"/>
<feBlend mode="normal" in2="shape" result="effect1_innerShadow_75_8395"/>
<feColorMatrix in="SourceAlpha" type="matrix" values="0 0 0 0 0 0 0 0 0 0 0 0 0 0 0 0 0 0 127 0" result="hardAlpha"/>
<feOffset dx="-2.19178" dy="-1.91781"/>
<feGaussianBlur stdDeviation="0.684931"/>
<feComposite in2="hardAlpha" operator="arithmetic" k2="-1" k3="1"/>
<feColorMatrix type="matrix" values="0 0 0 0 1 0 0 0 0 1 0 0 0 0 1 0 0 0 0.25 0"/>
<feBlend mode="normal" in2="effect1_innerShadow_75_8395" result="effect2_innerShadow_75_8395"/>
</filter>
<filter id="filter2_ii_75_8395" x="60.541" y="41.8959" width="31.584" height="75.3406" filterUnits="userSpaceOnUse" color-interpolation-filters="sRGB">
<feFlood flood-opacity="0" result="BackgroundImageFix"/>
<feBlend mode="normal" in="SourceGraphic" in2="BackgroundImageFix" result="shape"/>
<feColorMatrix in="SourceAlpha" type="matrix" values="0 0 0 0 0 0 0 0 0 0 0 0 0 0 0 0 0 0 127 0" result="hardAlpha"/>
<feOffset dy="1.0739"/>
<feGaussianBlur stdDeviation="0.671185"/>
<feComposite in2="hardAlpha" operator="arithmetic" k2="-1" k3="1"/>
<feColorMatrix type="matrix" values="0 0 0 0 1 0 0 0 0 1 0 0 0 0 1 0 0 0 0.95 0"/>
<feBlend mode="normal" in2="shape" result="effect1_innerShadow_75_8395"/>
<feColorMatrix in="SourceAlpha" type="matrix" values="0 0 0 0 0 0 0 0 0 0 0 0 0 0 0 0 0 0 127 0" result="hardAlpha"/>
<feOffset dy="-1.34237"/>
<feGaussianBlur stdDeviation="0.805422"/>
<feComposite in2="hardAlpha" operator="arithmetic" k2="-1" k3="1"/>
<feColorMatrix type="matrix" values="0 0 0 0 0.19205 0 0 0 0 0.542839 0 0 0 0 0.425909 0 0 0 0.36 0"/>
<feBlend mode="normal" in2="effect1_innerShadow_75_8395" result="effect2_innerShadow_75_8395"/>
</filter>
<linearGradient id="paint0_linear_75_8395" x1="39.1807" y1="17.0109" x2="126.753" y2="149.12" gradientUnits="userSpaceOnUse">
<stop stop-color="#F6C218"/>
<stop offset="1" stop-color="#1A97A4"/>
</linearGradient>
<linearGradient id="paint1_linear_75_8395" x1="41.9699" y1="21.2599" x2="123.635" y2="144.457" gradientUnits="userSpaceOnUse">
<stop stop-color="#F6C218"/>
<stop offset="1" stop-color="#1A97A4"/>
</linearGradient>
<linearGradient id="paint2_linear_75_8395" x1="41.9699" y1="21.2599" x2="123.635" y2="144.457" gradientUnits="userSpaceOnUse">
<stop stop-color="#F6C218"/>
<stop offset="1" stop-color="#1A97A4"/>
</linearGradient>
<linearGradient id="paint3_linear_75_8395" x1="65.7078" y1="55.8079" x2="88.4424" y2="112.838" gradientUnits="userSpaceOnUse">
<stop stop-color="#EDDA76"/>
<stop offset="1" stop-color="#94E093"/>
</linearGradient>
</defs>
</svg>
