<svg width="189" height="189" viewBox="0 0 189 189" fill="none" xmlns="http://www.w3.org/2000/svg">
<g filter="url(#filter0_ii_63_29755)">
<circle cx="94.5" cy="94.4213" r="94" fill="url(#paint0_linear_63_29755)"/>
</g>
<g filter="url(#filter1_ii_63_29755)">
<circle cx="94.5028" cy="94.4212" r="87.6591" fill="url(#paint1_linear_63_29755)"/>
</g>
<mask id="mask0_63_29755" style="mask-type:alpha" maskUnits="userSpaceOnUse" x="6" y="6" width="177" height="177">
<circle cx="94.5028" cy="94.4212" r="87.6591" fill="url(#paint2_linear_63_29755)"/>
</mask>
<g mask="url(#mask0_63_29755)">
<g style="mix-blend-mode:soft-light">
<rect x="0.400391" y="62.3308" width="77.2729" height="77.2729" rx="11.75" transform="rotate(45 0.400391 62.3308)" stroke="#D9D9D9" stroke-opacity="0.6" stroke-width="2.25342"/>
<rect x="188.723" y="62.3308" width="77.2729" height="77.2729" rx="11.75" transform="rotate(45 188.723 62.3308)" stroke="#D9D9D9" stroke-opacity="0.6" stroke-width="2.25342"/>
<rect x="0.400391" y="16.9404" width="77.2729" height="77.2729" rx="11.75" transform="rotate(45 0.400391 16.9404)" stroke="#D9D9D9" stroke-opacity="0.6" stroke-width="2.25342"/>
<rect x="188.723" y="16.9404" width="77.2729" height="77.2729" rx="11.75" transform="rotate(45 188.723 16.9404)" stroke="#D9D9D9" stroke-opacity="0.6" stroke-width="2.25342"/>
</g>
</g>
<g style="mix-blend-mode:lighten" filter="url(#filter2_ii_63_29755)">
<path fill-rule="evenodd" clip-rule="evenodd" d="M127.538 70.0463C128.909 70.6019 130.351 69.4206 130.077 67.9668L127.6 54.8398C127.348 53.5016 125.795 52.8736 124.683 53.66L113.786 61.3671C112.579 62.2209 112.794 64.0719 114.165 64.6266L116.514 65.5777L112.278 76.2151C108.218 68.1047 99.8041 62.5395 90.1344 62.5395C76.4332 62.5395 65.332 73.6406 65.332 87.3309C65.332 93.4256 67.5231 99.0017 71.1748 103.318L82.2834 87.4656C82.8583 86.6452 84.035 86.5437 84.742 87.2535L90.944 93.4802C91.7221 94.2615 93.0377 94.0467 93.5269 93.0584L100.247 79.4834C100.734 78.4999 102.04 78.2812 102.821 79.0526L113.155 89.2663L114.82 85.0924L121.714 67.6847L127.538 70.0463Z" fill="url(#paint3_linear_63_29755)"/>
<path d="M103.076 107.498C103.076 106.938 103.369 106.422 103.835 106.112C107.06 103.968 109.74 101.092 111.665 97.72L105.189 91.3407C104.407 90.5709 103.101 90.7913 102.616 91.775L95.8636 105.455C95.375 106.445 94.0576 106.66 93.2791 105.877L85.8805 98.4396C85.174 97.7293 83.9972 97.8301 83.4217 98.6503L76.9006 107.945V112.783C76.9006 115.881 79.4119 118.392 82.5096 118.392H97.467C100.565 118.392 103.076 115.881 103.076 112.783V107.498Z" fill="url(#paint4_linear_63_29755)"/>
<path d="M81.604 121.869C81.604 120.963 82.3381 120.229 83.2436 120.229H97.6094C98.515 120.229 99.249 120.963 99.249 121.869C99.249 122.774 98.515 123.508 97.6094 123.508H83.2436C82.3381 123.508 81.604 122.774 81.604 121.869Z" fill="url(#paint5_linear_63_29755)"/>
<path d="M81.604 126.455C81.604 125.549 82.3381 124.815 83.2436 124.815H97.6094C98.515 124.815 99.249 125.549 99.249 126.455C99.249 127.36 98.515 128.095 97.6094 128.095H83.2436C82.3381 128.095 81.604 127.36 81.604 126.455Z" fill="url(#paint6_linear_63_29755)"/>
<path d="M90.1052 135.303C93.3643 135.303 96.0063 132.661 96.0063 129.402H84.204C84.204 132.661 86.8461 135.303 90.1052 135.303Z" fill="url(#paint7_linear_63_29755)"/>
</g>
<g style="mix-blend-mode:overlay">
<path d="M35.2984 145.62L38.305 143.097L38.7288 142.641L39.4836 143.54L38.2386 146.864L41.7681 146.263L42.4385 147.062L38.9585 149.982L38.3029 149.201L40.5105 147.348L40.4559 147.283L39.7473 147.485L37.784 147.861L37.1831 147.145L37.8949 145.277L38.2112 144.608L38.1615 144.549L35.9539 146.401L35.2984 145.62Z" fill="white"/>
<path d="M41.4385 152.362L42.7585 151.017L43.0144 147.545L43.8969 148.41L43.7016 150.243L43.6199 150.833L43.6751 150.887L44.2642 150.794L46.0922 150.564L46.9748 151.429L46.4351 151.549L43.4649 151.753L42.1666 153.077L41.4385 152.362Z" fill="white"/>
<path d="M51.0591 160.382L55.4468 157.83L56.7184 158.667L56.1069 163.702L55.1128 163.048L55.2712 161.978L52.9603 160.458L52.0015 161.002L51.0591 160.382ZM53.6087 159.978L55.4484 161.188L55.7231 158.844L55.6585 158.802L53.6087 159.978Z" fill="white"/>
<path d="M57.9315 164.617L59.7606 161.144L59.9803 160.561L60.9647 161.08L62.007 164.737L62.0791 165.247L62.1543 165.287L63.6306 162.484L64.5329 162.959L62.4157 166.979L61.5476 166.521L60.4722 162.794L60.3748 162.332L60.3065 162.296L58.8338 165.092L57.9315 164.617Z" fill="white"/>
<path d="M63.8883 167.544L67.702 164.194L69.111 164.77L69.4813 169.829L68.3799 169.379L68.329 168.298L65.7685 167.252L64.9325 167.97L63.8883 167.544ZM66.3123 166.656L68.3507 167.489L68.1686 165.136L68.097 165.107L66.3123 166.656Z" fill="white"/>
<path d="M71.3241 170.281L71.5754 169.712L72.701 165.952L73.678 166.244L72.5878 169.886L75.652 170.803L75.7598 171.521C75.7538 171.54 75.6813 171.54 75.5422 171.52C75.4045 171.495 75.1729 171.434 74.8472 171.336L71.3241 170.281Z" fill="white"/>
<path d="M80.0586 172.399L80.4219 170.549L78.728 167.508L79.941 167.746L80.7845 169.384L81.041 169.923L81.1168 169.938L81.5578 169.536L82.9583 168.339L84.1713 168.577L83.7863 168.974L81.4167 170.776L81.0593 172.596L80.0586 172.399Z" fill="white"/>
<path d="M87.1182 173.276L87.4792 169.485L85.4799 169.29L85.5517 168.552L90.5808 169.041L90.509 169.779L88.502 169.584L88.1332 173.375L87.1182 173.276Z" fill="white"/>
<path d="M92.8193 173.439V168.896H93.8391V173.439H92.8193Z" fill="white"/>
<path d="M99.2518 173.502C98.8878 173.537 98.5983 173.514 98.3833 173.431C98.1683 173.348 98.0098 173.209 97.9078 173.012C97.8058 172.814 97.7401 172.565 97.7107 172.262L97.5439 170.547C97.4961 170.055 97.5711 169.683 97.7691 169.431C97.9666 169.174 98.314 169.021 98.8113 168.973L101.126 168.747C101.48 168.713 101.751 168.707 101.939 168.73C102.132 168.748 102.231 168.777 102.235 168.818L102.143 169.471C102.055 169.464 101.794 169.474 101.362 169.501C100.935 169.522 100.313 169.572 99.4983 169.651L99.1061 169.689C98.696 169.729 98.5086 169.931 98.544 170.295L98.7347 172.256C98.7517 172.43 98.8085 172.562 98.9051 172.651C99.0064 172.734 99.1723 172.764 99.403 172.742L99.7183 172.711C100.569 172.628 101.227 172.557 101.692 172.496C102.162 172.43 102.452 172.381 102.563 172.349L102.928 172.826C102.93 172.852 102.89 172.894 102.808 172.954C102.731 173.013 102.582 173.074 102.36 173.137C102.139 173.2 101.815 173.252 101.39 173.294L99.2518 173.502Z" fill="white"/>
<path d="M106.374 172.908C106.031 172.976 105.775 173.01 105.607 173.011C105.439 173.013 105.352 172.993 105.344 172.953L105.517 172.234C105.638 172.231 105.93 172.195 106.394 172.125C106.862 172.049 107.5 171.931 108.309 171.772L108.453 171.744C108.67 171.701 108.817 171.633 108.893 171.539C108.968 171.441 108.987 171.298 108.95 171.111L108.92 170.959C108.886 170.782 108.823 170.663 108.732 170.602C108.647 170.541 108.477 170.534 108.225 170.584L106.466 170.929C105.955 171.03 105.566 171.009 105.296 170.868C105.026 170.721 104.849 170.433 104.765 170.004L104.741 169.883C104.697 169.66 104.697 169.448 104.741 169.245C104.791 169.041 104.905 168.863 105.086 168.712C105.265 168.557 105.532 168.444 105.885 168.374L107.947 167.969C108.291 167.902 108.573 167.865 108.792 167.859C109.011 167.852 109.125 167.869 109.133 167.91L109.106 168.576C108.972 168.587 108.67 168.63 108.203 168.707C107.734 168.778 107.107 168.89 106.324 169.044L106.239 169.053C106.007 169.099 105.859 169.177 105.797 169.289C105.734 169.396 105.714 169.521 105.737 169.663L105.762 169.792C105.795 169.959 105.865 170.076 105.973 170.144C106.085 170.206 106.25 170.216 106.467 170.173L108.15 169.843C108.474 169.779 108.755 169.758 108.996 169.779C109.236 169.8 109.434 169.887 109.59 170.04C109.745 170.188 109.856 170.432 109.923 170.77L109.947 170.892C110.021 171.271 109.982 171.596 109.831 171.867C109.685 172.137 109.371 172.319 108.891 172.414L106.374 172.908Z" fill="white"/>
<path d="M121.016 169.418C120.692 169.55 120.448 169.633 120.283 169.667C120.119 169.701 120.029 169.699 120.014 169.66L120.046 168.921C120.163 168.896 120.443 168.804 120.884 168.645C121.329 168.48 121.932 168.242 122.695 167.931L122.831 167.875C123.036 167.791 123.167 167.696 123.224 167.589C123.278 167.478 123.27 167.334 123.198 167.158L123.139 167.015C123.071 166.848 122.986 166.743 122.886 166.701C122.79 166.657 122.623 166.683 122.384 166.781L120.725 167.459C120.243 167.655 119.857 167.71 119.565 167.624C119.272 167.532 119.043 167.284 118.877 166.878L118.83 166.764C118.745 166.554 118.704 166.345 118.708 166.138C118.717 165.928 118.795 165.732 118.943 165.549C119.089 165.362 119.329 165.2 119.663 165.063L121.608 164.268C121.932 164.136 122.201 164.046 122.415 163.997C122.629 163.949 122.744 163.944 122.76 163.982L122.862 164.641C122.732 164.677 122.445 164.778 122.001 164.943C121.554 165.103 120.961 165.334 120.222 165.636L120.141 165.661C119.921 165.751 119.792 165.856 119.753 165.978C119.712 166.095 119.716 166.221 119.766 166.357L119.815 166.478C119.88 166.636 119.971 166.737 120.09 166.783C120.212 166.823 120.375 166.8 120.58 166.717L122.168 166.068C122.473 165.943 122.746 165.868 122.986 165.842C123.226 165.817 123.437 165.864 123.619 165.984C123.8 166.099 123.956 166.317 124.086 166.636L124.133 166.751C124.279 167.108 124.304 167.435 124.208 167.73C124.116 168.023 123.844 168.263 123.391 168.448L121.016 169.418Z" fill="white"/>
<path d="M128.341 166.384C128.017 166.554 127.74 166.642 127.51 166.647C127.28 166.652 127.08 166.582 126.911 166.438C126.742 166.294 126.587 166.088 126.445 165.819L125.642 164.295C125.412 163.857 125.341 163.484 125.429 163.176C125.514 162.863 125.778 162.59 126.22 162.358L128.278 161.274C128.592 161.108 128.841 161 129.024 160.95C129.21 160.894 129.312 160.883 129.331 160.92L129.493 161.559C129.409 161.586 129.171 161.694 128.781 161.882C128.393 162.063 127.837 162.344 127.113 162.726L126.764 162.909C126.399 163.101 126.302 163.359 126.473 163.683L127.391 165.426C127.473 165.581 127.575 165.681 127.698 165.727C127.823 165.766 127.988 165.731 128.193 165.623L128.474 165.476C129.23 165.077 129.812 164.762 130.22 164.53C130.629 164.291 130.88 164.136 130.97 164.065L131.488 164.368C131.5 164.391 131.479 164.445 131.426 164.532C131.377 164.616 131.262 164.729 131.081 164.871C130.899 165.013 130.619 165.184 130.241 165.383L128.341 166.384Z" fill="white"/>
<path d="M133.758 163.58L131.262 159.785L132.114 159.224L133.15 160.799L135.68 159.135L134.644 157.56L135.496 157L137.993 160.795L137.141 161.356L136.088 159.755L133.557 161.419L134.61 163.02L133.758 163.58Z" fill="white"/>
<path d="M140.973 158.663C140.692 158.889 140.44 159.027 140.215 159.076C139.989 159.125 139.778 159.097 139.581 158.992C139.387 158.883 139.195 158.71 139.004 158.474L137.884 157.085C137.696 156.852 137.572 156.632 137.51 156.424C137.444 156.212 137.46 156.001 137.555 155.791C137.648 155.578 137.836 155.356 138.121 155.127L139.877 153.71C140.158 153.484 140.41 153.35 140.634 153.308C140.859 153.259 141.069 153.289 141.262 153.397C141.456 153.499 141.647 153.665 141.835 153.898L142.955 155.287C143.24 155.64 143.378 155.972 143.371 156.282C143.36 156.589 143.146 156.91 142.729 157.246L140.973 158.663ZM140.682 157.945L142.095 156.805C142.243 156.685 142.327 156.555 142.346 156.414C142.368 156.27 142.326 156.132 142.22 156L140.983 154.466C140.889 154.35 140.768 154.286 140.619 154.273C140.467 154.257 140.319 154.307 140.174 154.424L138.761 155.563C138.617 155.68 138.531 155.812 138.504 155.959C138.478 156.106 138.516 156.244 138.619 156.372L139.856 157.906C139.966 158.042 140.094 158.114 140.24 158.123C140.386 158.124 140.533 158.064 140.682 157.945Z" fill="white"/>
<path d="M146.598 153.873C146.34 154.126 146.102 154.287 145.883 154.358C145.664 154.429 145.451 154.421 145.244 154.336C145.041 154.246 144.833 154.093 144.62 153.876L143.37 152.602C143.161 152.389 143.016 152.181 142.934 151.98C142.848 151.775 142.843 151.564 142.918 151.346C142.989 151.125 143.156 150.886 143.417 150.63L145.027 149.05C145.285 148.798 145.523 148.64 145.742 148.577C145.961 148.506 146.173 148.515 146.376 148.605C146.579 148.687 146.785 148.834 146.994 149.048L148.244 150.322C148.561 150.645 148.731 150.962 148.754 151.272C148.773 151.578 148.591 151.919 148.208 152.294L146.598 153.873ZM146.238 153.187L147.535 151.916C147.671 151.782 147.741 151.644 147.746 151.502C147.755 151.357 147.7 151.223 147.581 151.102L146.201 149.695C146.097 149.589 145.97 149.537 145.82 149.539C145.667 149.537 145.525 149.602 145.392 149.731L144.096 151.003C143.964 151.133 143.891 151.272 143.879 151.421C143.867 151.57 143.918 151.704 144.033 151.822L145.413 153.228C145.536 153.353 145.67 153.413 145.816 153.407C145.961 153.394 146.102 153.32 146.238 153.187Z" fill="white"/>
<path d="M150.821 149.053L150.397 148.596L147.391 146.074L148.046 145.292L150.958 147.736L153.014 145.285L153.716 145.471C153.732 145.484 153.703 145.551 153.629 145.67C153.552 145.787 153.404 145.975 153.185 146.236L150.821 149.053Z" fill="white"/>
</g>
<g style="mix-blend-mode:soft-light">
<path d="M28.7938 65.1425L29.3203 67.4795C29.7217 69.2614 31.1132 70.653 32.8951 71.0544L35.2322 71.5808L32.8951 72.1073C31.1132 72.5087 29.7217 73.9002 29.3203 75.6821L28.7938 78.0192L28.2674 75.6821C27.866 73.9002 26.4744 72.5087 24.6925 72.1073L22.3555 71.5808L24.6925 71.0544C26.4744 70.653 27.866 69.2614 28.2674 67.4795L28.7938 65.1425Z" fill="#D9D9D9"/>
</g>
<g style="mix-blend-mode:soft-light">
<path d="M160.337 65.1425L159.811 67.4795C159.409 69.2614 158.018 70.653 156.236 71.0544L153.899 71.5808L156.236 72.1073C158.018 72.5087 159.409 73.9002 159.811 75.6821L160.337 78.0192L160.863 75.6821C161.265 73.9002 162.656 72.5087 164.438 72.1073L166.775 71.5808L164.438 71.0544C162.656 70.653 161.265 69.2614 160.863 67.4795L160.337 65.1425Z" fill="#D9D9D9"/>
</g>
<g style="mix-blend-mode:soft-light">
<path d="M28.7938 110.533L29.3203 112.87C29.7217 114.652 31.1132 116.043 32.8951 116.445L35.2322 116.971L32.8951 117.498C31.1132 117.899 29.7217 119.291 29.3203 121.073L28.7938 123.41L28.2674 121.073C27.866 119.291 26.4744 117.899 24.6925 117.498L22.3555 116.971L24.6925 116.445C26.4744 116.043 27.866 114.652 28.2674 112.87L28.7938 110.533Z" fill="#D9D9D9"/>
</g>
<g style="mix-blend-mode:soft-light">
<path d="M160.337 110.533L159.811 112.87C159.409 114.652 158.018 116.043 156.236 116.445L153.899 116.971L156.236 117.498C158.018 117.899 159.409 119.291 159.811 121.073L160.337 123.41L160.863 121.073C161.265 119.291 162.656 117.899 164.438 117.498L166.775 116.971L164.438 116.445C162.656 116.043 161.265 114.652 160.863 112.87L160.337 110.533Z" fill="#D9D9D9"/>
</g>
<g style="mix-blend-mode:soft-light">
<path d="M14.5087 87.871L15.0351 90.208C15.4365 91.9899 16.8281 93.3815 18.61 93.7829L20.947 94.3093L18.61 94.8358C16.8281 95.2372 15.4365 96.6287 15.0351 98.4106L14.5087 100.748L13.9822 98.4106C13.5808 96.6287 12.1893 95.2372 10.4074 94.8358L8.07031 94.3093L10.4073 93.7829C12.1893 93.3815 13.5808 91.9899 13.9822 90.208L14.5087 87.871Z" fill="#D9D9D9"/>
</g>
<g style="mix-blend-mode:soft-light">
<path d="M174.622 87.871L174.096 90.208C173.694 91.9899 172.303 93.3815 170.521 93.7829L168.184 94.3093L170.521 94.8358C172.303 95.2372 173.694 96.6287 174.096 98.4106L174.622 100.748L175.149 98.4106C175.55 96.6287 176.942 95.2372 178.724 94.8358L181.061 94.3093L178.724 93.7829C176.942 93.3815 175.55 91.9899 175.149 90.208L174.622 87.871Z" fill="#D9D9D9"/>
</g>
<path d="M55.5818 31.9644L53.3603 27.2262L52.9172 26.5238L54.3349 25.8591L58.192 28.6016L58.6254 23.8475L59.8846 23.2572L62.4559 28.7415L61.2247 29.3187L59.5936 25.8397L59.491 25.8878L59.5077 26.8698L59.3207 29.5288L58.1922 30.0579L56.0286 28.501L55.2751 27.8644L55.1818 27.9081L56.813 31.3872L55.5818 31.9644Z" fill="white"/>
<path d="M66.2626 26.28L67.8027 19.69L69.7773 19.222L74.1011 24.4222L72.5575 24.7881L71.6644 23.6552L68.0759 24.5057L67.7261 25.9331L66.2626 26.28ZM68.2039 23.4379L71.0607 22.7608L69.0389 20.3498L68.9386 20.3736L68.2039 23.4379Z" fill="white"/>
<path d="M81.161 22.8109C80.6972 22.8651 80.3538 22.8845 80.1307 22.8691C79.9076 22.8537 79.7929 22.8187 79.7865 22.7642L80.0918 21.8262C80.2518 21.8351 80.6438 21.8169 81.2677 21.7717C81.8977 21.7188 82.7583 21.6286 83.8497 21.501L84.0441 21.4783C84.3374 21.444 84.5395 21.3685 84.6503 21.2519C84.7604 21.1284 84.8006 20.9404 84.7711 20.688L84.7472 20.4834C84.7193 20.2447 84.6482 20.0801 84.5339 19.9898C84.4265 19.8986 84.2022 19.873 83.8612 19.9128L81.4874 20.1903C80.7985 20.2708 80.2824 20.2032 79.9391 19.9875C79.595 19.765 79.3891 19.3638 79.3213 18.784L79.3022 18.6203C79.2671 18.3202 79.2894 18.0375 79.369 17.7724C79.4555 17.5065 79.6264 17.2825 79.8817 17.1006C80.1362 16.9118 80.5022 16.7895 80.9797 16.7337L83.7627 16.4084C84.2265 16.3542 84.6045 16.3342 84.8966 16.3485C85.1886 16.3627 85.3378 16.3971 85.3442 16.4517L85.24 17.3351C85.0603 17.3354 84.6555 17.3619 84.0255 17.4148C83.3948 17.4609 82.5508 17.5457 81.4935 17.6693L81.3798 17.6722C81.066 17.7089 80.8621 17.7984 80.7681 17.9408C80.6733 18.0763 80.6337 18.24 80.6492 18.4318L80.6695 18.6057C80.6958 18.8308 80.7772 18.9941 80.9135 19.0958C81.0559 19.1897 81.2737 19.2196 81.567 19.1853L83.8384 18.9198C84.275 18.8688 84.6519 18.8697 84.9692 18.9225C85.2866 18.9753 85.541 19.1115 85.7326 19.3311C85.9234 19.5439 86.0456 19.8788 86.099 20.3358L86.1181 20.4995C86.1779 21.0111 86.0931 21.4393 85.8638 21.7842C85.6413 22.1282 85.206 22.3381 84.558 22.4139L81.161 22.8109Z" fill="white"/>
<path d="M94.9187 21.3049C94.4311 21.3049 94.05 21.2363 93.7753 21.0989C93.5006 20.9616 93.3083 20.7555 93.1984 20.4808C93.0885 20.2061 93.0336 19.8662 93.0336 19.461V17.1638C93.0336 16.5045 93.1812 16.0203 93.4766 15.7113C93.7719 15.3954 94.2526 15.2374 94.9187 15.2374H98.0195C98.4933 15.2374 98.8539 15.2649 99.1011 15.3198C99.3552 15.3679 99.4823 15.4194 99.4823 15.4744L99.2762 16.3294C99.1595 16.3088 98.8127 16.2882 98.2358 16.2676C97.6658 16.2401 96.8348 16.2264 95.7429 16.2264H95.2175C94.6681 16.2264 94.3934 16.4702 94.3934 16.9578V19.5846C94.3934 19.8181 94.4518 20.0001 94.5685 20.1306C94.6921 20.2542 94.9084 20.316 95.2175 20.316H95.6398C96.7799 20.316 97.6623 20.3057 98.2873 20.2851C98.9191 20.2576 99.3106 20.2302 99.4617 20.2027L99.884 20.8826C99.884 20.9169 99.8256 20.9684 99.7089 21.0371C99.599 21.1058 99.393 21.1676 99.0908 21.2225C98.7886 21.2775 98.3525 21.3049 97.7825 21.3049H94.9187Z" fill="white"/>
<path d="M108.687 22.371C108.21 22.3152 107.842 22.2031 107.585 22.0348C107.329 21.8665 107.158 21.6392 107.074 21.3528C106.997 21.0671 106.982 20.7231 107.029 20.3207L107.305 17.9571C107.351 17.5615 107.444 17.2371 107.585 16.9838C107.726 16.7237 107.941 16.5414 108.229 16.4369C108.519 16.3255 108.906 16.2982 109.39 16.3548L112.378 16.704C112.855 16.7598 113.219 16.8748 113.468 17.0492C113.725 17.2175 113.892 17.4445 113.969 17.7301C114.054 18.0096 114.073 18.3472 114.027 18.7429L113.751 21.1064C113.681 21.7067 113.494 22.1481 113.192 22.4308C112.89 22.7067 112.384 22.8031 111.675 22.7202L108.687 22.371ZM109.099 21.4234L111.503 21.7045C111.755 21.734 111.957 21.6919 112.109 21.5782C112.267 21.4654 112.36 21.2964 112.386 21.0713L112.691 18.4622C112.714 18.2644 112.662 18.0889 112.535 17.9358C112.408 17.7758 112.222 17.6814 111.977 17.6527L109.572 17.3717C109.327 17.343 109.121 17.3847 108.956 17.4967C108.791 17.6088 108.695 17.774 108.67 17.9922L108.365 20.6013C108.338 20.8332 108.388 21.0224 108.516 21.1687C108.652 21.309 108.846 21.3939 109.099 21.4234Z" fill="white"/>
<path d="M120.502 24.5398L121.899 18.6459L123.222 18.9595L121.825 24.8534L120.502 24.5398Z" fill="white"/>
<path d="M127.226 26.7074L129.487 21.988L129.75 21.2002L131.088 21.8411L132.662 26.6617L132.784 27.337L132.887 27.3859L134.711 23.5769L135.938 24.1645L133.321 29.6271L132.141 29.0619L130.519 24.1499L130.366 23.5397L130.273 23.4952L128.453 27.2949L127.226 26.7074Z" fill="white"/>
<defs>
<filter id="filter0_ii_63_29755" x="0.5" y="-1.18832" width="190.253" height="192.185" filterUnits="userSpaceOnUse" color-interpolation-filters="sRGB">
<feFlood flood-opacity="0" result="BackgroundImageFix"/>
<feBlend mode="normal" in="SourceGraphic" in2="BackgroundImageFix" result="shape"/>
<feColorMatrix in="SourceAlpha" type="matrix" values="0 0 0 0 0 0 0 0 0 0 0 0 0 0 0 0 0 0 127 0" result="hardAlpha"/>
<feOffset dx="2.25342" dy="2.57534"/>
<feGaussianBlur stdDeviation="1.28767"/>
<feComposite in2="hardAlpha" operator="arithmetic" k2="-1" k3="1"/>
<feColorMatrix type="matrix" values="0 0 0 0 0.949843 0 0 0 0 0.949843 0 0 0 0 0.774058 0 0 0 0.95 0"/>
<feBlend mode="normal" in2="shape" result="effect1_innerShadow_63_29755"/>
<feColorMatrix in="SourceAlpha" type="matrix" values="0 0 0 0 0 0 0 0 0 0 0 0 0 0 0 0 0 0 127 0" result="hardAlpha"/>
<feOffset dy="-2.25342"/>
<feGaussianBlur stdDeviation="0.804794"/>
<feComposite in2="hardAlpha" operator="arithmetic" k2="-1" k3="1"/>
<feColorMatrix type="matrix" values="0 0 0 0 0 0 0 0 0 0.0462675 0 0 0 0 0.0645593 0 0 0 0.25 0"/>
<feBlend mode="normal" in2="effect1_innerShadow_63_29755" result="effect2_innerShadow_63_29755"/>
</filter>
<filter id="filter1_ii_63_29755" x="5.23416" y="5.15256" width="176.928" height="176.928" filterUnits="userSpaceOnUse" color-interpolation-filters="sRGB">
<feFlood flood-opacity="0" result="BackgroundImageFix"/>
<feBlend mode="normal" in="SourceGraphic" in2="BackgroundImageFix" result="shape"/>
<feColorMatrix in="SourceAlpha" type="matrix" values="0 0 0 0 0 0 0 0 0 0 0 0 0 0 0 0 0 0 127 0" result="hardAlpha"/>
<feOffset dx="2.25342" dy="2.57534"/>
<feComposite in2="hardAlpha" operator="arithmetic" k2="-1" k3="1"/>
<feColorMatrix type="matrix" values="0 0 0 0 0.0873622 0 0 0 0 0 0 0 0 0 0.218406 0 0 0 0.25 0"/>
<feBlend mode="normal" in2="shape" result="effect1_innerShadow_63_29755"/>
<feColorMatrix in="SourceAlpha" type="matrix" values="0 0 0 0 0 0 0 0 0 0 0 0 0 0 0 0 0 0 127 0" result="hardAlpha"/>
<feOffset dx="-2.57534" dy="-2.25342"/>
<feGaussianBlur stdDeviation="0.804794"/>
<feComposite in2="hardAlpha" operator="arithmetic" k2="-1" k3="1"/>
<feColorMatrix type="matrix" values="0 0 0 0 1 0 0 0 0 1 0 0 0 0 1 0 0 0 0.25 0"/>
<feBlend mode="normal" in2="effect1_innerShadow_63_29755" result="effect2_innerShadow_63_29755"/>
</filter>
<filter id="filter2_ii_63_29755" x="65.332" y="51.7055" width="64.7793" height="84.8854" filterUnits="userSpaceOnUse" color-interpolation-filters="sRGB">
<feFlood flood-opacity="0" result="BackgroundImageFix"/>
<feBlend mode="normal" in="SourceGraphic" in2="BackgroundImageFix" result="shape"/>
<feColorMatrix in="SourceAlpha" type="matrix" values="0 0 0 0 0 0 0 0 0 0 0 0 0 0 0 0 0 0 127 0" result="hardAlpha"/>
<feOffset dy="1.28767"/>
<feGaussianBlur stdDeviation="0.804794"/>
<feComposite in2="hardAlpha" operator="arithmetic" k2="-1" k3="1"/>
<feColorMatrix type="matrix" values="0 0 0 0 1 0 0 0 0 1 0 0 0 0 1 0 0 0 0.95 0"/>
<feBlend mode="normal" in2="shape" result="effect1_innerShadow_63_29755"/>
<feColorMatrix in="SourceAlpha" type="matrix" values="0 0 0 0 0 0 0 0 0 0 0 0 0 0 0 0 0 0 127 0" result="hardAlpha"/>
<feOffset dy="-1.60959"/>
<feGaussianBlur stdDeviation="0.965753"/>
<feComposite in2="hardAlpha" operator="arithmetic" k2="-1" k3="1"/>
<feColorMatrix type="matrix" values="0 0 0 0 0.19205 0 0 0 0 0.542839 0 0 0 0 0.425909 0 0 0 0.36 0"/>
<feBlend mode="normal" in2="effect1_innerShadow_63_29755" result="effect2_innerShadow_63_29755"/>
</filter>
<linearGradient id="paint0_linear_63_29755" x1="45.9498" y1="20.4091" x2="148.847" y2="175.637" gradientUnits="userSpaceOnUse">
<stop stop-color="#F6C218"/>
<stop offset="1" stop-color="#1A97A4"/>
</linearGradient>
<linearGradient id="paint1_linear_63_29755" x1="49.2277" y1="25.4017" x2="145.184" y2="170.159" gradientUnits="userSpaceOnUse">
<stop stop-color="#F6C218"/>
<stop offset="1" stop-color="#1A97A4"/>
</linearGradient>
<linearGradient id="paint2_linear_63_29755" x1="49.2277" y1="25.4017" x2="145.184" y2="170.159" gradientUnits="userSpaceOnUse">
<stop stop-color="#F6C218"/>
<stop offset="1" stop-color="#1A97A4"/>
</linearGradient>
<linearGradient id="paint3_linear_63_29755" x1="76.5303" y1="66.5759" x2="97.7214" y2="135.303" gradientUnits="userSpaceOnUse">
<stop stop-color="#EDDA76"/>
<stop offset="1" stop-color="#94E093"/>
</linearGradient>
<linearGradient id="paint4_linear_63_29755" x1="76.5303" y1="66.5759" x2="97.7214" y2="135.303" gradientUnits="userSpaceOnUse">
<stop stop-color="#EDDA76"/>
<stop offset="1" stop-color="#94E093"/>
</linearGradient>
<linearGradient id="paint5_linear_63_29755" x1="76.5303" y1="66.5759" x2="97.7214" y2="135.303" gradientUnits="userSpaceOnUse">
<stop stop-color="#EDDA76"/>
<stop offset="1" stop-color="#94E093"/>
</linearGradient>
<linearGradient id="paint6_linear_63_29755" x1="76.5303" y1="66.5759" x2="97.7214" y2="135.303" gradientUnits="userSpaceOnUse">
<stop stop-color="#EDDA76"/>
<stop offset="1" stop-color="#94E093"/>
</linearGradient>
<linearGradient id="paint7_linear_63_29755" x1="76.5303" y1="66.5759" x2="97.7214" y2="135.303" gradientUnits="userSpaceOnUse">
<stop stop-color="#EDDA76"/>
<stop offset="1" stop-color="#94E093"/>
</linearGradient>
</defs>
</svg>
