<svg width="724" height="741" viewBox="0 0 724 741" fill="none" xmlns="http://www.w3.org/2000/svg">
<g opacity="0.56" filter="url(#filter0_f_17_389)">
<path d="M361.963 30L388.633 253.649L509.7 63.7201L436.692 276.793L628.177 158.202L469.949 318.496L693.926 294.732L481.819 370.5L693.926 446.268L469.949 422.504L628.177 582.798L436.692 464.207L509.7 677.28L388.633 487.351L361.963 711L335.292 487.351L214.226 677.28L287.234 464.207L95.7493 582.798L253.976 422.504L30 446.268L242.107 370.5L30 294.732L253.976 318.496L95.7493 158.202L287.234 276.793L214.226 63.7201L335.292 253.649L361.963 30Z" fill="url(#paint0_radial_17_389)"/>
</g>
<mask id="path-2-inside-1_17_389" fill="white">
<path d="M241.463 403.184C241.463 389.464 252.585 378.342 266.305 378.342H452.621C466.341 378.342 477.463 389.464 477.463 403.184V564.658C477.463 578.377 466.341 589.5 452.621 589.5H266.305C252.585 589.5 241.463 578.378 241.463 564.658V403.184Z"/>
</mask>
<path d="M241.463 403.184C241.463 389.464 252.585 378.342 266.305 378.342H452.621C466.341 378.342 477.463 389.464 477.463 403.184V564.658C477.463 578.377 466.341 589.5 452.621 589.5H266.305C252.585 589.5 241.463 578.378 241.463 564.658V403.184Z" fill="#A16436"/>
<path d="M241.463 403.184C241.463 388.606 253.28 376.789 267.858 376.789H451.068C465.646 376.789 477.463 388.606 477.463 403.184C477.463 390.321 466.341 379.894 452.621 379.894H266.305C252.585 379.894 241.463 390.321 241.463 403.184ZM477.463 589.5H241.463H477.463ZM241.463 589.5V378.342V589.5ZM477.463 378.342V589.5V378.342Z" fill="black" mask="url(#path-2-inside-1_17_389)"/>
<rect x="247.485" y="386.245" width="223.967" height="195.353" rx="24.8421" stroke="#643000" stroke-width="1.55263" stroke-dasharray="6.21 6.21"/>
<path d="M247.485 411.087C247.485 397.367 258.607 386.245 272.327 386.245H446.61C460.33 386.245 471.452 397.367 471.452 411.087V556.756C471.452 570.476 460.33 581.598 446.61 581.598H272.327C258.607 581.598 247.485 570.476 247.485 556.756V411.087Z" stroke="#643000" stroke-width="1.55263" stroke-dasharray="6.21 6.21"/>
<g filter="url(#filter1_d_17_389)">
<g filter="url(#filter2_ii_17_389)">
<circle cx="361.831" cy="365.868" r="99.3684" fill="url(#paint1_linear_17_389)"/>
</g>
<g filter="url(#filter3_ii_17_389)">
<circle cx="361.822" cy="365.868" r="92.6654" fill="url(#paint2_linear_17_389)"/>
</g>
<mask id="mask0_17_389" style="mask-type:alpha" maskUnits="userSpaceOnUse" x="269" y="273" width="186" height="186">
<circle cx="361.841" cy="365.868" r="92.6654" fill="url(#paint3_linear_17_389)"/>
</mask>
<g mask="url(#mask0_17_389)">
<g style="mix-blend-mode:soft-light">
<rect x="262.377" y="331.947" width="81.686" height="81.686" rx="12.4211" transform="rotate(45 262.377 331.947)" stroke="#D9D9D9" stroke-opacity="0.6" stroke-width="2.38212"/>
<rect x="461.473" y="331.947" width="81.686" height="81.686" rx="12.4211" transform="rotate(45 461.473 331.947)" stroke="#D9D9D9" stroke-opacity="0.6" stroke-width="2.38212"/>
<rect x="262.377" y="283.961" width="81.686" height="81.686" rx="12.4211" transform="rotate(45 262.377 283.961)" stroke="#D9D9D9" stroke-opacity="0.6" stroke-width="2.38212"/>
<rect x="461.473" y="283.961" width="81.686" height="81.686" rx="12.4211" transform="rotate(45 461.473 283.961)" stroke="#D9D9D9" stroke-opacity="0.6" stroke-width="2.38212"/>
</g>
</g>
<g style="mix-blend-mode:overlay">
<path d="M299.389 419.813L302.568 417.146L303.016 416.664L303.814 417.615L302.498 421.129L306.229 420.493L306.937 421.337L303.259 424.424L302.566 423.598L304.899 421.64L304.841 421.571L304.092 421.784L302.017 422.182L301.382 421.425L302.134 419.45L302.469 418.743L302.416 418.681L300.082 420.639L299.389 419.813Z" fill="white"/>
<path d="M305.936 426.925L307.332 425.502L307.602 421.832L308.535 422.747L308.329 424.684L308.242 425.309L308.301 425.366L308.923 425.267L310.856 425.023L311.789 425.938L311.218 426.065L308.078 426.281L306.706 427.68L305.936 426.925Z" fill="white"/>
<path d="M316.066 435.358L320.704 432.661L322.048 433.545L321.402 438.867L320.351 438.176L320.518 437.045L318.076 435.438L317.062 436.013L316.066 435.358ZM318.761 434.931L320.706 436.21L320.996 433.732L320.928 433.688L318.761 434.931Z" fill="white"/>
<path d="M323.27 439.826L325.203 436.155L325.436 435.539L326.476 436.087L327.578 439.954L327.654 440.492L327.734 440.534L329.294 437.572L330.248 438.074L328.01 442.323L327.092 441.839L325.956 437.899L325.853 437.411L325.781 437.373L324.224 440.328L323.27 439.826Z" fill="white"/>
<path d="M329.568 442.904L333.599 439.363L335.089 439.972L335.48 445.319L334.316 444.844L334.262 443.701L331.555 442.596L330.671 443.355L329.568 442.904ZM332.13 441.966L334.285 442.846L334.092 440.359L334.017 440.328L332.13 441.966Z" fill="white"/>
<path d="M337.393 445.789L337.659 445.186L338.849 441.212L339.882 441.521L338.729 445.37L341.968 446.34L342.082 447.099C342.076 447.12 341.999 447.12 341.852 447.098C341.707 447.072 341.462 447.007 341.117 446.904L337.393 445.789Z" fill="white"/>
<path d="M346.564 448.015L346.948 446.06L345.157 442.845L346.439 443.097L347.331 444.828L347.602 445.397L347.682 445.413L348.149 444.989L349.629 443.723L350.911 443.975L350.504 444.394L347.999 446.299L347.622 448.223L346.564 448.015Z" fill="white"/>
<path d="M354.05 448.949L354.432 444.94L352.318 444.735L352.394 443.954L357.711 444.472L357.635 445.252L355.513 445.046L355.123 449.053L354.05 448.949Z" fill="white"/>
<path d="M360.068 449.116V444.313H361.146V449.116H360.068Z" fill="white"/>
<path d="M366.784 449.19C366.399 449.227 366.093 449.202 365.866 449.115C365.639 449.027 365.471 448.88 365.363 448.671C365.256 448.463 365.186 448.199 365.155 447.879L364.979 446.066C364.928 445.546 365.008 445.153 365.217 444.886C365.426 444.614 365.793 444.453 366.318 444.402L368.765 444.164C369.139 444.127 369.426 444.121 369.625 444.146C369.829 444.164 369.934 444.195 369.938 444.238L369.841 444.929C369.747 444.922 369.472 444.932 369.015 444.96C368.563 444.982 367.906 445.035 367.045 445.119L366.63 445.159C366.197 445.201 365.999 445.415 366.036 445.799L366.238 447.872C366.256 448.057 366.316 448.196 366.418 448.29C366.525 448.378 366.7 448.41 366.944 448.386L367.277 448.354C368.177 448.266 368.872 448.19 369.364 448.126C369.861 448.056 370.167 448.004 370.284 447.971L370.67 448.475C370.673 448.502 370.63 448.547 370.544 448.611C370.462 448.673 370.304 448.738 370.07 448.804C369.836 448.871 369.494 448.926 369.044 448.97L366.784 449.19Z" fill="white"/>
<path d="M374.341 448.566C373.977 448.637 373.707 448.674 373.53 448.675C373.353 448.677 373.26 448.656 373.251 448.613L373.435 447.853C373.562 447.851 373.871 447.812 374.361 447.738C374.856 447.657 375.531 447.533 376.386 447.365L376.538 447.335C376.768 447.29 376.923 447.218 377.003 447.119C377.082 447.015 377.103 446.864 377.064 446.666L377.032 446.506C376.996 446.319 376.929 446.193 376.833 446.129C376.743 446.063 376.564 446.057 376.297 446.109L374.438 446.474C373.898 446.58 373.486 446.559 373.201 446.409C372.916 446.255 372.728 445.95 372.639 445.496L372.614 445.368C372.568 445.133 372.568 444.908 372.615 444.693C372.667 444.478 372.788 444.29 372.979 444.131C373.168 443.966 373.45 443.847 373.824 443.773L376.004 443.345C376.367 443.274 376.665 443.235 376.896 443.228C377.128 443.222 377.248 443.24 377.257 443.282L377.229 443.987C377.086 443.998 376.768 444.044 376.273 444.125C375.778 444.2 375.116 444.319 374.288 444.481L374.198 444.491C373.952 444.539 373.796 444.622 373.731 444.741C373.664 444.853 373.643 444.985 373.667 445.136L373.694 445.272C373.728 445.448 373.803 445.573 373.917 445.645C374.035 445.71 374.209 445.72 374.439 445.675L376.218 445.326C376.56 445.259 376.858 445.236 377.112 445.258C377.366 445.281 377.576 445.373 377.741 445.534C377.904 445.691 378.022 445.948 378.092 446.306L378.117 446.434C378.196 446.835 378.155 447.179 377.995 447.465C377.84 447.751 377.509 447.944 377.001 448.043L374.341 448.566Z" fill="white"/>
<path d="M389.749 444.896C389.407 445.036 389.148 445.124 388.975 445.159C388.801 445.195 388.706 445.193 388.69 445.152L388.723 444.371C388.848 444.344 389.143 444.247 389.61 444.079C390.08 443.905 390.718 443.653 391.525 443.324L391.668 443.265C391.885 443.177 392.023 443.076 392.083 442.963C392.141 442.846 392.132 442.693 392.055 442.507L391.994 442.356C391.922 442.179 391.832 442.069 391.726 442.024C391.624 441.977 391.448 442.005 391.196 442.108L389.442 442.825C388.932 443.033 388.524 443.091 388.216 442.999C387.906 442.902 387.663 442.64 387.488 442.211L387.439 442.09C387.348 441.869 387.305 441.648 387.309 441.429C387.319 441.207 387.402 441 387.558 440.806C387.712 440.608 387.966 440.437 388.319 440.293L390.375 439.453C390.718 439.313 391.002 439.217 391.229 439.166C391.455 439.115 391.576 439.109 391.592 439.149L391.701 439.846C391.563 439.885 391.26 439.991 390.79 440.165C390.318 440.335 389.691 440.579 388.91 440.898L388.824 440.924C388.592 441.019 388.455 441.131 388.414 441.26C388.37 441.383 388.375 441.517 388.427 441.66L388.48 441.788C388.548 441.955 388.645 442.062 388.77 442.111C388.899 442.152 389.072 442.129 389.289 442.04L390.967 441.355C391.29 441.223 391.578 441.143 391.831 441.116C392.085 441.089 392.308 441.139 392.501 441.266C392.692 441.388 392.857 441.618 392.995 441.956L393.044 442.076C393.199 442.455 393.225 442.8 393.123 443.112C393.026 443.422 392.738 443.675 392.26 443.87L389.749 444.896Z" fill="white"/>
<path d="M397.489 441.687C397.147 441.868 396.854 441.96 396.611 441.965C396.367 441.971 396.156 441.897 395.978 441.745C395.799 441.593 395.635 441.375 395.485 441.09L394.637 439.479C394.393 439.017 394.318 438.622 394.411 438.296C394.501 437.966 394.78 437.677 395.247 437.431L397.422 436.286C397.755 436.11 398.018 435.996 398.211 435.944C398.407 435.883 398.516 435.873 398.536 435.911L398.707 436.587C398.618 436.616 398.367 436.729 397.955 436.928C397.545 437.12 396.957 437.417 396.191 437.82L395.822 438.015C395.437 438.218 395.334 438.49 395.514 438.832L396.485 440.675C396.571 440.839 396.679 440.945 396.809 440.993C396.942 441.034 397.116 440.997 397.333 440.883L397.629 440.727C398.429 440.306 399.044 439.973 399.475 439.727C399.908 439.475 400.173 439.311 400.268 439.236L400.816 439.556C400.829 439.581 400.807 439.638 400.75 439.73C400.699 439.818 400.577 439.938 400.385 440.088C400.193 440.238 399.898 440.419 399.498 440.629L397.489 441.687Z" fill="white"/>
<path d="M403.144 438.742L400.505 434.73L401.405 434.138L402.5 435.803L405.175 434.043L404.08 432.378L404.981 431.786L407.62 435.798L406.719 436.391L405.606 434.698L402.931 436.458L404.044 438.15L403.144 438.742Z" fill="white"/>
<path d="M410.784 433.563C410.487 433.802 410.22 433.948 409.982 434C409.744 434.052 409.521 434.022 409.312 433.911C409.107 433.796 408.904 433.613 408.702 433.363L407.518 431.895C407.32 431.649 407.188 431.416 407.122 431.196C407.053 430.972 407.07 430.749 407.171 430.528C407.268 430.302 407.468 430.068 407.769 429.825L409.625 428.328C409.922 428.088 410.188 427.947 410.426 427.902C410.663 427.85 410.885 427.882 411.089 427.997C411.295 428.104 411.496 428.28 411.695 428.526L412.879 429.995C413.18 430.368 413.326 430.718 413.318 431.046C413.307 431.37 413.081 431.71 412.64 432.066L410.784 433.563ZM410.476 432.804L411.97 431.599C412.126 431.473 412.215 431.335 412.235 431.186C412.259 431.034 412.214 430.888 412.101 430.748L410.794 429.127C410.695 429.004 410.567 428.936 410.409 428.923C410.248 428.906 410.092 428.959 409.939 429.082L408.445 430.287C408.293 430.41 408.202 430.549 408.174 430.705C408.146 430.86 408.186 431.006 408.296 431.142L409.603 432.763C409.719 432.907 409.854 432.983 410.008 432.992C410.163 432.993 410.319 432.93 410.476 432.804Z" fill="white"/>
<path d="M416.687 428.521C416.415 428.788 416.163 428.959 415.931 429.034C415.699 429.108 415.474 429.1 415.256 429.01C415.041 428.915 414.821 428.753 414.596 428.524L413.275 427.177C413.054 426.952 412.9 426.733 412.814 426.52C412.723 426.304 412.718 426.08 412.797 425.85C412.872 425.616 413.048 425.363 413.324 425.093L415.027 423.423C415.299 423.156 415.551 422.989 415.782 422.922C416.014 422.847 416.237 422.857 416.452 422.951C416.667 423.038 416.885 423.194 417.106 423.42L418.427 424.767C418.762 425.109 418.942 425.444 418.966 425.771C418.986 426.095 418.794 426.455 418.389 426.851L416.687 428.521ZM416.307 427.796L417.677 426.452C417.821 426.311 417.896 426.165 417.901 426.015C417.91 425.861 417.852 425.72 417.726 425.592L416.268 424.105C416.157 423.992 416.023 423.937 415.865 423.939C415.703 423.938 415.552 424.005 415.412 424.143L414.042 425.487C413.902 425.624 413.826 425.771 413.813 425.929C413.8 426.087 413.854 426.228 413.976 426.352L415.434 427.839C415.564 427.971 415.706 428.034 415.86 428.028C416.014 428.014 416.163 427.937 416.307 427.796Z" fill="white"/>
<path d="M421.156 423.436L420.708 422.954L417.53 420.287L418.223 419.461L421.301 422.044L423.474 419.453L424.216 419.649C424.233 419.663 424.202 419.734 424.124 419.86C424.042 419.984 423.886 420.183 423.655 420.458L421.156 423.436Z" fill="white"/>
</g>
<g style="mix-blend-mode:soft-light">
<path d="M292.355 334.92L292.912 337.39C293.336 339.274 294.807 340.745 296.691 341.169L299.161 341.726L296.691 342.282C294.807 342.707 293.336 344.178 292.912 346.062L292.355 348.532L291.799 346.062C291.374 344.178 289.903 342.707 288.02 342.282L285.549 341.726L288.02 341.169C289.903 340.745 291.374 339.274 291.799 337.39L292.355 334.92Z" fill="#D9D9D9"/>
</g>
<g style="mix-blend-mode:soft-light">
<path d="M431.428 334.92L430.871 337.39C430.447 339.274 428.976 340.745 427.092 341.169L424.622 341.726L427.092 342.282C428.976 342.707 430.447 344.178 430.871 346.062L431.428 348.532L431.984 346.062C432.409 344.178 433.88 342.707 435.763 342.282L438.234 341.726L435.763 341.169C433.88 340.745 432.409 339.274 431.984 337.39L431.428 334.92Z" fill="#D9D9D9"/>
</g>
<g style="mix-blend-mode:soft-light">
<path d="M292.355 382.905L292.912 385.376C293.336 387.259 294.807 388.73 296.691 389.155L299.161 389.711L296.691 390.268C294.807 390.692 293.336 392.163 292.912 394.047L292.355 396.517L291.799 394.047C291.375 392.163 289.904 390.692 288.02 390.268L285.549 389.711L288.02 389.155C289.904 388.73 291.375 387.259 291.799 385.376L292.355 382.905Z" fill="#D9D9D9"/>
</g>
<g style="mix-blend-mode:soft-light">
<path d="M431.428 382.905L430.871 385.376C430.447 387.259 428.976 388.73 427.092 389.155L424.622 389.711L427.092 390.268C428.976 390.692 430.447 392.163 430.871 394.047L431.428 396.517L431.984 394.047C432.409 392.163 433.88 390.692 435.763 390.268L438.234 389.711L435.763 389.155C433.88 388.73 432.409 387.259 431.984 385.376L431.428 382.905Z" fill="#D9D9D9"/>
</g>
<g style="mix-blend-mode:soft-light">
<path d="M277.279 358.946L277.835 361.417C278.259 363.301 279.73 364.772 281.614 365.196L284.085 365.752L281.614 366.309C279.73 366.733 278.259 368.204 277.835 370.088L277.279 372.559L276.722 370.088C276.298 368.204 274.827 366.733 272.943 366.309L270.472 365.752L272.943 365.196C274.827 364.772 276.298 363.301 276.722 361.417L277.279 358.946Z" fill="#D9D9D9"/>
</g>
<g style="mix-blend-mode:soft-light">
<path d="M446.544 358.946L445.987 361.417C445.563 363.301 444.092 364.772 442.208 365.196L439.738 365.752L442.208 366.309C444.092 366.733 445.563 368.204 445.987 370.088L446.544 372.559L447.1 370.088C447.524 368.204 448.995 366.733 450.879 366.309L453.35 365.752L450.879 365.196C448.995 364.772 447.524 363.301 447.1 361.417L446.544 358.946Z" fill="#D9D9D9"/>
</g>
</g>
<g filter="url(#filter4_diii_17_389)">
<path d="M241.463 471.5H477.463V564.658C477.463 578.378 466.341 589.5 452.621 589.5H266.305C252.585 589.5 241.463 578.378 241.463 564.658V471.5Z" fill="#B27945"/>
<path d="M241.463 470.724H477.463V472.276H241.463V470.724ZM477.463 589.5H241.463H477.463ZM241.463 589.5V471.5V589.5ZM477.463 471.5V589.5V471.5Z" fill="#492300"/>
</g>
<g filter="url(#filter5_di_17_389)">
<path d="M269.079 581.382C269.136 580.957 269.525 580.66 269.951 580.702C270.732 580.78 271.523 580.82 272.324 580.82H274.659C275.087 580.82 275.435 581.168 275.435 581.597C275.435 582.025 275.087 582.373 274.659 582.373H272.324C271.456 582.373 270.597 582.329 269.75 582.244C269.322 582.201 269.022 581.808 269.079 581.382ZM287.11 580.82C287.539 580.82 287.886 581.168 287.886 581.597C287.886 582.025 287.539 582.373 287.11 582.373H282.434C282.005 582.373 281.658 582.025 281.658 581.597C281.658 581.168 282.005 580.82 282.434 580.82H287.11ZM299.555 580.82C299.984 580.82 300.332 581.168 300.332 581.597C300.332 582.025 299.984 582.373 299.555 582.373H294.885C294.456 582.373 294.109 582.025 294.109 581.597C294.109 581.168 294.456 580.82 294.885 580.82H299.555ZM312.007 580.82C312.435 580.82 312.783 581.168 312.783 581.597C312.783 582.025 312.435 582.373 312.007 582.373H307.337C306.908 582.373 306.56 582.025 306.56 581.597C306.56 581.168 306.908 580.82 307.337 580.82H312.007ZM324.452 580.82C324.881 580.82 325.228 581.168 325.228 581.597C325.228 582.025 324.881 582.373 324.452 582.373H319.782C319.353 582.373 319.006 582.025 319.006 581.597C319.006 581.168 319.353 580.82 319.782 580.82H324.452ZM336.903 580.82C337.332 580.82 337.68 581.168 337.68 581.597C337.68 582.025 337.332 582.373 336.903 582.373H332.233C331.805 582.373 331.457 582.025 331.457 581.597C331.457 581.168 331.805 580.82 332.233 580.82H336.903ZM349.355 580.82C349.783 580.82 350.131 581.168 350.131 581.597C350.131 582.025 349.783 582.373 349.355 582.373H344.679C344.25 582.373 343.902 582.025 343.902 581.597C343.902 581.168 344.25 580.82 344.679 580.82H349.355ZM361.8 580.82C362.229 580.82 362.576 581.168 362.576 581.597C362.576 582.025 362.229 582.373 361.8 582.373H357.13C356.701 582.373 356.354 582.025 356.354 581.597C356.354 581.168 356.701 580.82 357.13 580.82H361.8ZM374.251 580.82C374.68 580.82 375.028 581.168 375.028 581.597C375.028 582.025 374.68 582.373 374.251 582.373H369.575C369.147 582.373 368.799 582.025 368.799 581.597C368.799 581.168 369.147 580.82 369.575 580.82H374.251ZM386.697 580.82C387.125 580.82 387.473 581.168 387.473 581.597C387.473 582.025 387.125 582.373 386.697 582.373H382.027C381.598 582.373 381.25 582.025 381.25 581.597C381.25 581.168 381.598 580.82 382.027 580.82H386.697ZM399.148 580.82C399.577 580.82 399.924 581.168 399.924 581.597C399.924 582.025 399.577 582.373 399.148 582.373H394.478C394.049 582.373 393.702 582.025 393.702 581.597C393.702 581.168 394.049 580.82 394.478 580.82H399.148ZM411.593 580.82C412.022 580.82 412.37 581.168 412.37 581.597C412.37 582.025 412.022 582.373 411.593 582.373H406.923C406.495 582.373 406.147 582.025 406.147 581.597C406.147 581.168 406.495 580.82 406.923 580.82H411.593ZM424.045 580.82C424.474 580.82 424.821 581.168 424.821 581.597C424.821 582.025 424.474 582.373 424.045 582.373H419.375C418.946 582.373 418.598 582.025 418.598 581.597C418.598 581.168 418.946 580.82 419.375 580.82H424.045ZM436.496 580.82C436.925 580.82 437.272 581.168 437.272 581.597C437.272 582.025 436.925 582.373 436.496 582.373H431.82C431.391 582.373 431.044 582.025 431.044 581.597C431.044 581.168 431.391 580.82 431.82 580.82H436.496ZM449.851 581.382C449.908 581.808 449.608 582.201 449.18 582.244C448.333 582.329 447.474 582.373 446.606 582.373H444.271C443.843 582.373 443.495 582.025 443.495 581.597C443.495 581.168 443.843 580.82 444.271 580.82H446.606C447.407 580.82 448.198 580.78 448.979 580.702C449.405 580.66 449.794 580.957 449.851 581.382ZM257.198 576.466C257.459 576.124 257.947 576.061 258.296 576.312C259.575 577.231 260.95 578.029 262.4 578.686C262.79 578.863 262.978 579.315 262.814 579.711C262.649 580.106 262.196 580.294 261.806 580.119C260.228 579.408 258.733 578.542 257.345 577.54C256.999 577.291 256.936 576.804 257.198 576.466ZM461.732 576.466C461.994 576.804 461.931 577.291 461.585 577.54C460.197 578.542 458.702 579.408 457.124 580.119C456.734 580.294 456.281 580.106 456.116 579.711C455.952 579.315 456.14 578.863 456.53 578.686C457.98 578.029 459.355 577.231 460.634 576.312C460.983 576.061 461.471 576.124 461.732 576.466ZM249.367 566.265C249.763 566.1 250.215 566.289 250.392 566.678C251.049 568.128 251.847 569.503 252.767 570.782C253.017 571.132 252.954 571.62 252.612 571.881C252.274 572.142 251.788 572.079 251.538 571.733C250.536 570.345 249.671 568.85 248.96 567.273C248.784 566.882 248.972 566.429 249.367 566.265ZM469.563 566.265C469.958 566.429 470.146 566.882 469.97 567.273C469.259 568.85 468.394 570.345 467.392 571.733C467.142 572.079 466.656 572.142 466.318 571.881C465.976 571.62 465.913 571.132 466.163 570.782C467.083 569.503 467.881 568.128 468.538 566.678C468.715 566.289 469.167 566.1 469.563 566.265ZM246.705 556.755V554.498C246.705 554.07 247.053 553.722 247.481 553.722C247.91 553.722 248.258 554.07 248.258 554.498V556.755C248.258 557.555 248.299 558.347 248.376 559.127C248.418 559.553 248.121 559.942 247.696 559.999C247.27 560.056 246.877 559.756 246.834 559.328C246.749 558.481 246.705 557.622 246.705 556.755ZM470.672 556.755V554.498C470.672 554.07 471.02 553.722 471.449 553.722C471.877 553.722 472.225 554.07 472.225 554.498V556.755C472.225 557.622 472.181 558.481 472.096 559.328C472.053 559.756 471.66 560.056 471.234 559.999C470.809 559.942 470.512 559.553 470.554 559.127C470.631 558.347 470.672 557.555 470.672 556.755ZM247.481 541.58C247.91 541.58 248.258 541.928 248.258 542.356V546.875C248.258 547.303 247.91 547.651 247.481 547.651C247.053 547.651 246.705 547.303 246.705 546.875V542.356C246.705 541.928 247.053 541.58 247.481 541.58ZM471.449 541.58C471.877 541.58 472.225 541.928 472.225 542.356V546.875C472.225 547.303 471.877 547.651 471.449 547.651C471.02 547.651 470.672 547.303 470.672 546.875V542.356C470.672 541.928 471.02 541.58 471.449 541.58ZM247.481 529.444C247.91 529.444 248.258 529.792 248.258 530.22V534.733C248.258 535.161 247.91 535.509 247.481 535.509C247.053 535.509 246.705 535.161 246.705 534.733V530.22C246.705 529.792 247.053 529.444 247.481 529.444ZM471.449 529.444C471.877 529.444 472.225 529.792 472.225 530.22V534.733C472.225 535.161 471.877 535.509 471.449 535.509C471.02 535.509 470.672 535.161 470.672 534.733V530.22C470.672 529.792 471.02 529.444 471.449 529.444ZM247.481 517.302C247.91 517.302 248.258 517.65 248.258 518.078V522.597C248.258 523.025 247.91 523.373 247.481 523.373C247.053 523.373 246.705 523.025 246.705 522.597V518.078C246.705 517.65 247.053 517.302 247.481 517.302ZM471.449 517.302C471.877 517.302 472.225 517.65 472.225 518.078V522.597C472.225 523.025 471.877 523.373 471.449 523.373C471.02 523.373 470.672 523.025 470.672 522.597V518.078C470.672 517.65 471.02 517.302 471.449 517.302ZM247.481 505.166C247.91 505.166 248.258 505.514 248.258 505.942V510.455C248.258 510.883 247.91 511.231 247.481 511.231C247.053 511.231 246.705 510.883 246.705 510.455V505.942C246.705 505.514 247.053 505.166 247.481 505.166ZM471.449 505.166C471.877 505.166 472.225 505.514 472.225 505.942V510.455C472.225 510.883 471.877 511.231 471.449 511.231C471.02 511.231 470.672 510.883 470.672 510.455V505.942C470.672 505.514 471.02 505.166 471.449 505.166ZM247.481 493.024C247.91 493.024 248.258 493.371 248.258 493.8V498.319C248.258 498.747 247.91 499.095 247.481 499.095C247.053 499.095 246.705 498.747 246.705 498.319V493.8C246.705 493.371 247.053 493.024 247.481 493.024ZM471.449 493.024C471.877 493.024 472.225 493.371 472.225 493.8V498.319C472.225 498.747 471.877 499.095 471.449 499.095C471.02 499.095 470.672 498.747 470.672 498.319V493.8C470.672 493.371 471.02 493.024 471.449 493.024ZM247.481 480.888C247.91 480.888 248.258 481.235 248.258 481.664V486.177C248.258 486.605 247.91 486.953 247.481 486.953C247.053 486.953 246.705 486.605 246.705 486.177V481.664C246.705 481.235 247.053 480.888 247.481 480.888ZM471.449 480.888C471.877 480.888 472.225 481.235 472.225 481.664V486.177C472.225 486.605 471.877 486.953 471.449 486.953C471.02 486.953 470.672 486.605 470.672 486.177V481.664C470.672 481.235 471.02 480.888 471.449 480.888ZM247.481 468.746C247.91 468.746 248.258 469.093 248.258 469.522V474.041C248.258 474.469 247.91 474.817 247.481 474.817C247.053 474.817 246.705 474.469 246.705 474.041V469.522C246.705 469.093 247.053 468.746 247.481 468.746ZM471.449 468.746C471.877 468.746 472.225 469.093 472.225 469.522V474.041C472.225 474.469 471.877 474.817 471.449 474.817C471.02 474.817 470.672 474.469 470.672 474.041V469.522C470.672 469.093 471.02 468.746 471.449 468.746ZM247.481 456.61C247.91 456.61 248.258 456.957 248.258 457.386V461.898C248.258 462.327 247.91 462.675 247.481 462.675C247.053 462.675 246.705 462.327 246.705 461.898V457.386C246.705 456.957 247.053 456.61 247.481 456.61ZM471.449 456.61C471.877 456.61 472.225 456.957 472.225 457.386V461.898C472.225 462.327 471.877 462.675 471.449 462.675C471.02 462.675 470.672 462.327 470.672 461.898V457.386C470.672 456.957 471.02 456.61 471.449 456.61ZM247.481 444.468C247.91 444.468 248.258 444.815 248.258 445.244V449.762C248.258 450.191 247.91 450.539 247.481 450.539C247.053 450.539 246.705 450.191 246.705 449.762V445.244C246.705 444.815 247.053 444.468 247.481 444.468ZM471.449 444.468C471.877 444.468 472.225 444.815 472.225 445.244V449.762C472.225 450.191 471.877 450.539 471.449 450.539C471.02 450.539 470.672 450.191 470.672 449.762V445.244C470.672 444.815 471.02 444.468 471.449 444.468ZM247.481 432.332C247.91 432.332 248.258 432.679 248.258 433.108V437.62C248.258 438.049 247.91 438.397 247.481 438.397C247.053 438.397 246.705 438.049 246.705 437.62V433.108C246.705 432.679 247.053 432.332 247.481 432.332ZM471.449 432.332C471.877 432.332 472.225 432.679 472.225 433.108V437.62C472.225 438.049 471.877 438.397 471.449 438.397C471.02 438.397 470.672 438.049 470.672 437.62V433.108C470.672 432.679 471.02 432.332 471.449 432.332ZM247.481 420.19C247.91 420.19 248.258 420.537 248.258 420.966V425.484C248.258 425.913 247.91 426.261 247.481 426.261C247.053 426.261 246.705 425.913 246.705 425.484V420.966C246.705 420.537 247.053 420.19 247.481 420.19ZM471.449 420.19C471.877 420.19 472.225 420.537 472.225 420.966V425.484C472.225 425.913 471.877 426.261 471.449 426.261C471.02 426.261 470.672 425.913 470.672 425.484V420.966C470.672 420.537 471.02 420.19 471.449 420.19ZM246.705 411.086C246.705 410.219 246.749 409.359 246.834 408.513C246.877 408.085 247.27 407.785 247.696 407.842C248.121 407.899 248.418 408.288 248.376 408.714C248.299 409.494 248.258 410.285 248.258 411.086V413.342C248.258 413.771 247.91 414.119 247.481 414.119C247.053 414.119 246.705 413.771 246.705 413.342V411.086ZM470.672 411.086C470.672 410.285 470.631 409.494 470.554 408.714C470.512 408.288 470.809 407.899 471.234 407.842C471.66 407.785 472.053 408.085 472.096 408.513C472.181 409.359 472.225 410.219 472.225 411.086V413.342C472.225 413.771 471.877 414.119 471.449 414.119C471.02 414.119 470.672 413.771 470.672 413.342V411.086ZM252.612 395.96C252.954 396.221 253.017 396.709 252.767 397.058C251.847 398.338 251.049 399.712 250.392 401.162C250.215 401.552 249.763 401.74 249.367 401.576C248.972 401.412 248.784 400.958 248.96 400.568C249.671 398.99 250.536 397.496 251.538 396.108C251.788 395.761 252.274 395.699 252.612 395.96ZM466.318 395.96C466.656 395.699 467.142 395.761 467.392 396.108C468.394 397.496 469.259 398.99 469.97 400.568C470.146 400.958 469.958 401.412 469.563 401.576C469.167 401.74 468.715 401.552 468.538 401.162C467.881 399.712 467.083 398.338 466.163 397.058C465.913 396.709 465.976 396.221 466.318 395.96ZM262.814 388.13C262.978 388.525 262.79 388.978 262.4 389.155C260.95 389.812 259.575 390.61 258.296 391.529C257.947 391.78 257.459 391.716 257.198 391.375C256.936 391.037 256.999 390.55 257.345 390.3C258.733 389.299 260.228 388.433 261.806 387.722C262.196 387.546 262.649 387.735 262.814 388.13ZM456.116 388.13C456.281 387.735 456.734 387.546 457.124 387.722C458.702 388.433 460.197 389.299 461.585 390.3C461.931 390.55 461.994 391.037 461.732 391.375C461.471 391.716 460.983 391.78 460.634 391.529C459.355 390.61 457.98 389.812 456.53 389.155C456.14 388.978 455.952 388.525 456.116 388.13ZM274.659 385.468C275.087 385.468 275.435 385.815 275.435 386.244C275.435 386.673 275.087 387.02 274.659 387.02H272.324C271.523 387.02 270.732 387.061 269.951 387.138C269.525 387.181 269.136 386.883 269.079 386.459C269.022 386.033 269.322 385.64 269.75 385.597C270.597 385.512 271.456 385.468 272.324 385.468H274.659ZM446.606 385.468C447.474 385.468 448.333 385.512 449.18 385.597C449.608 385.64 449.908 386.033 449.851 386.459C449.794 386.883 449.405 387.181 448.979 387.138C448.198 387.061 447.407 387.02 446.606 387.02H444.271C443.843 387.02 443.495 386.673 443.495 386.244C443.495 385.815 443.843 385.468 444.271 385.468H446.606ZM287.11 385.468C287.539 385.468 287.886 385.815 287.886 386.244C287.886 386.673 287.539 387.02 287.11 387.02H282.434C282.005 387.02 281.658 386.673 281.658 386.244C281.658 385.815 282.005 385.468 282.434 385.468H287.11Z" fill="#FFA959"/>
</g>
<g filter="url(#filter6_ii_17_389)">
<rect x="321.522" y="489.447" width="82.0954" height="82.0954" rx="9.31579" fill="#88542C"/>
</g>
<g filter="url(#filter7_ii_17_389)">
<path fill-rule="evenodd" clip-rule="evenodd" d="M385.245 511.974C386.291 512.398 387.392 511.496 387.183 510.386L385.293 500.368C385.1 499.347 383.915 498.867 383.066 499.467L374.75 505.35C373.829 506.001 373.992 507.414 375.038 507.837L376.832 508.563L373.599 516.682C370.5 510.492 364.078 506.244 356.699 506.244C346.242 506.244 337.769 514.717 337.769 525.165C337.769 529.817 339.441 534.072 342.228 537.367L351.123 524.674C351.345 524.358 351.799 524.319 352.071 524.592L357.915 530.459C358.215 530.761 358.723 530.678 358.911 530.296L364.789 518.422C364.977 518.043 365.481 517.958 365.783 518.256L374.268 526.642L375.539 523.457L380.8 510.171L385.245 511.974Z" fill="#B27945"/>
<path d="M366.576 540.821C366.576 540.23 366.886 539.686 367.374 539.351C369.738 537.731 371.705 535.591 373.131 533.094L367.589 527.636C367.288 527.339 366.784 527.424 366.597 527.803L361.364 538.404C360.847 539.45 359.455 539.678 358.632 538.851L352.941 533.129C352.668 532.855 352.214 532.894 351.992 533.211L346.598 540.898V544.591C346.598 546.955 348.515 548.871 350.879 548.871H362.295C364.659 548.871 366.576 546.955 366.576 544.591V540.821Z" fill="#B27945"/>
<path d="M350.188 551.525C350.188 550.833 350.748 550.273 351.439 550.273H362.404C363.095 550.273 363.655 550.833 363.655 551.525C363.655 552.216 363.095 552.776 362.404 552.776H351.439C350.748 552.776 350.188 552.216 350.188 551.525Z" fill="#B27945"/>
<path d="M350.188 555.025C350.188 554.334 350.748 553.773 351.439 553.773H362.404C363.095 553.773 363.655 554.334 363.655 555.025C363.655 555.716 363.095 556.276 362.404 556.276H351.439C350.748 556.276 350.188 555.716 350.188 555.025Z" fill="#B27945"/>
<path d="M356.676 561.778C359.164 561.778 361.18 559.761 361.18 557.274H352.172C352.172 559.761 354.189 561.778 356.676 561.778Z" fill="#B27945"/>
</g>
<defs>
<filter id="filter0_f_17_389" x="0" y="0" width="723.926" height="741" filterUnits="userSpaceOnUse" color-interpolation-filters="sRGB">
<feFlood flood-opacity="0" result="BackgroundImageFix"/>
<feBlend mode="normal" in="SourceGraphic" in2="BackgroundImageFix" result="shape"/>
<feGaussianBlur stdDeviation="15" result="effect1_foregroundBlur_17_389"/>
</filter>
<filter id="filter1_d_17_389" x="232.652" y="236.689" width="258.358" height="258.358" filterUnits="userSpaceOnUse" color-interpolation-filters="sRGB">
<feFlood flood-opacity="0" result="BackgroundImageFix"/>
<feColorMatrix in="SourceAlpha" type="matrix" values="0 0 0 0 0 0 0 0 0 0 0 0 0 0 0 0 0 0 127 0" result="hardAlpha"/>
<feOffset/>
<feGaussianBlur stdDeviation="14.9053"/>
<feComposite in2="hardAlpha" operator="out"/>
<feColorMatrix type="matrix" values="0 0 0 0 0 0 0 0 0 0 0 0 0 0 0 0 0 0 0.25 0"/>
<feBlend mode="normal" in2="BackgroundImageFix" result="effect1_dropShadow_17_389"/>
<feBlend mode="normal" in="SourceGraphic" in2="effect1_dropShadow_17_389" result="shape"/>
</filter>
<filter id="filter2_ii_17_389" x="262.463" y="264.798" width="201.119" height="203.161" filterUnits="userSpaceOnUse" color-interpolation-filters="sRGB">
<feFlood flood-opacity="0" result="BackgroundImageFix"/>
<feBlend mode="normal" in="SourceGraphic" in2="BackgroundImageFix" result="shape"/>
<feColorMatrix in="SourceAlpha" type="matrix" values="0 0 0 0 0 0 0 0 0 0 0 0 0 0 0 0 0 0 127 0" result="hardAlpha"/>
<feOffset dx="2.38212" dy="2.72242"/>
<feGaussianBlur stdDeviation="1.36121"/>
<feComposite in2="hardAlpha" operator="arithmetic" k2="-1" k3="1"/>
<feColorMatrix type="matrix" values="0 0 0 0 0.949843 0 0 0 0 0.949843 0 0 0 0 0.774058 0 0 0 0.95 0"/>
<feBlend mode="normal" in2="shape" result="effect1_innerShadow_17_389"/>
<feColorMatrix in="SourceAlpha" type="matrix" values="0 0 0 0 0 0 0 0 0 0 0 0 0 0 0 0 0 0 127 0" result="hardAlpha"/>
<feOffset dy="-2.38212"/>
<feGaussianBlur stdDeviation="0.850757"/>
<feComposite in2="hardAlpha" operator="arithmetic" k2="-1" k3="1"/>
<feColorMatrix type="matrix" values="0 0 0 0 0 0 0 0 0 0.0462675 0 0 0 0 0.0645593 0 0 0 0.25 0"/>
<feBlend mode="normal" in2="effect1_innerShadow_17_389" result="effect2_innerShadow_17_389"/>
</filter>
<filter id="filter3_ii_17_389" x="267.455" y="271.501" width="187.032" height="187.032" filterUnits="userSpaceOnUse" color-interpolation-filters="sRGB">
<feFlood flood-opacity="0" result="BackgroundImageFix"/>
<feBlend mode="normal" in="SourceGraphic" in2="BackgroundImageFix" result="shape"/>
<feColorMatrix in="SourceAlpha" type="matrix" values="0 0 0 0 0 0 0 0 0 0 0 0 0 0 0 0 0 0 127 0" result="hardAlpha"/>
<feOffset dx="2.38212" dy="2.72242"/>
<feComposite in2="hardAlpha" operator="arithmetic" k2="-1" k3="1"/>
<feColorMatrix type="matrix" values="0 0 0 0 0.0873622 0 0 0 0 0 0 0 0 0 0.218406 0 0 0 0.25 0"/>
<feBlend mode="normal" in2="shape" result="effect1_innerShadow_17_389"/>
<feColorMatrix in="SourceAlpha" type="matrix" values="0 0 0 0 0 0 0 0 0 0 0 0 0 0 0 0 0 0 127 0" result="hardAlpha"/>
<feOffset dx="-2.72242" dy="-2.38212"/>
<feGaussianBlur stdDeviation="0.850757"/>
<feComposite in2="hardAlpha" operator="arithmetic" k2="-1" k3="1"/>
<feColorMatrix type="matrix" values="0 0 0 0 1 0 0 0 0 1 0 0 0 0 1 0 0 0 0.25 0"/>
<feBlend mode="normal" in2="effect1_innerShadow_17_389" result="effect2_innerShadow_17_389"/>
</filter>
<filter id="filter4_diii_17_389" x="235.252" y="461.408" width="248.421" height="131.197" filterUnits="userSpaceOnUse" color-interpolation-filters="sRGB">
<feFlood flood-opacity="0" result="BackgroundImageFix"/>
<feColorMatrix in="SourceAlpha" type="matrix" values="0 0 0 0 0 0 0 0 0 0 0 0 0 0 0 0 0 0 127 0" result="hardAlpha"/>
<feOffset dy="-3.10526"/>
<feGaussianBlur stdDeviation="3.10526"/>
<feComposite in2="hardAlpha" operator="out"/>
<feColorMatrix type="matrix" values="0 0 0 0 0.081043 0 0 0 0 0.022829 0 0 0 0 0 0 0 0 0.35 0"/>
<feBlend mode="normal" in2="BackgroundImageFix" result="effect1_dropShadow_17_389"/>
<feBlend mode="normal" in="SourceGraphic" in2="effect1_dropShadow_17_389" result="shape"/>
<feColorMatrix in="SourceAlpha" type="matrix" values="0 0 0 0 0 0 0 0 0 0 0 0 0 0 0 0 0 0 127 0" result="hardAlpha"/>
<feOffset dx="6.21053"/>
<feGaussianBlur stdDeviation="6.21053"/>
<feComposite in2="hardAlpha" operator="arithmetic" k2="-1" k3="1"/>
<feColorMatrix type="matrix" values="0 0 0 0 0 0 0 0 0 0 0 0 0 0 0 0 0 0 0.25 0"/>
<feBlend mode="normal" in2="shape" result="effect2_innerShadow_17_389"/>
<feColorMatrix in="SourceAlpha" type="matrix" values="0 0 0 0 0 0 0 0 0 0 0 0 0 0 0 0 0 0 127 0" result="hardAlpha"/>
<feOffset dx="-6.21053"/>
<feGaussianBlur stdDeviation="6.21053"/>
<feComposite in2="hardAlpha" operator="arithmetic" k2="-1" k3="1"/>
<feColorMatrix type="matrix" values="0 0 0 0 0 0 0 0 0 0 0 0 0 0 0 0 0 0 0.25 0"/>
<feBlend mode="normal" in2="effect2_innerShadow_17_389" result="effect3_innerShadow_17_389"/>
<feColorMatrix in="SourceAlpha" type="matrix" values="0 0 0 0 0 0 0 0 0 0 0 0 0 0 0 0 0 0 127 0" result="hardAlpha"/>
<feOffset dy="12.4211"/>
<feGaussianBlur stdDeviation="1.55263"/>
<feComposite in2="hardAlpha" operator="arithmetic" k2="-1" k3="1"/>
<feColorMatrix type="matrix" values="0 0 0 0 0 0 0 0 0 0 0 0 0 0 0 0 0 0 0.25 0"/>
<feBlend mode="normal" in2="effect3_innerShadow_17_389" result="effect4_innerShadow_17_389"/>
</filter>
<filter id="filter5_di_17_389" x="246.084" y="385.468" width="226.762" height="198.147" filterUnits="userSpaceOnUse" color-interpolation-filters="sRGB">
<feFlood flood-opacity="0" result="BackgroundImageFix"/>
<feColorMatrix in="SourceAlpha" type="matrix" values="0 0 0 0 0 0 0 0 0 0 0 0 0 0 0 0 0 0 127 0" result="hardAlpha"/>
<feOffset dy="0.621053"/>
<feGaussianBlur stdDeviation="0.310526"/>
<feComposite in2="hardAlpha" operator="out"/>
<feColorMatrix type="matrix" values="0 0 0 0 0 0 0 0 0 0 0 0 0 0 0 0 0 0 0.25 0"/>
<feBlend mode="normal" in2="BackgroundImageFix" result="effect1_dropShadow_17_389"/>
<feBlend mode="normal" in="SourceGraphic" in2="effect1_dropShadow_17_389" result="shape"/>
<feColorMatrix in="SourceAlpha" type="matrix" values="0 0 0 0 0 0 0 0 0 0 0 0 0 0 0 0 0 0 127 0" result="hardAlpha"/>
<feOffset dy="0.621053"/>
<feGaussianBlur stdDeviation="0.310526"/>
<feComposite in2="hardAlpha" operator="arithmetic" k2="-1" k3="1"/>
<feColorMatrix type="matrix" values="0 0 0 0 1 0 0 0 0 1 0 0 0 0 1 0 0 0 0.51 0"/>
<feBlend mode="normal" in2="shape" result="effect2_innerShadow_17_389"/>
</filter>
<filter id="filter6_ii_17_389" x="321.522" y="488.205" width="82.0955" height="84.8902" filterUnits="userSpaceOnUse" color-interpolation-filters="sRGB">
<feFlood flood-opacity="0" result="BackgroundImageFix"/>
<feBlend mode="normal" in="SourceGraphic" in2="BackgroundImageFix" result="shape"/>
<feColorMatrix in="SourceAlpha" type="matrix" values="0 0 0 0 0 0 0 0 0 0 0 0 0 0 0 0 0 0 127 0" result="hardAlpha"/>
<feOffset dy="1.55263"/>
<feGaussianBlur stdDeviation="0.776316"/>
<feComposite in2="hardAlpha" operator="arithmetic" k2="-1" k3="1"/>
<feColorMatrix type="matrix" values="0 0 0 0 0 0 0 0 0 0 0 0 0 0 0 0 0 0 0.25 0"/>
<feBlend mode="normal" in2="shape" result="effect1_innerShadow_17_389"/>
<feColorMatrix in="SourceAlpha" type="matrix" values="0 0 0 0 0 0 0 0 0 0 0 0 0 0 0 0 0 0 127 0" result="hardAlpha"/>
<feOffset dy="-1.55263"/>
<feGaussianBlur stdDeviation="0.621053"/>
<feComposite in2="hardAlpha" operator="arithmetic" k2="-1" k3="1"/>
<feColorMatrix type="matrix" values="0 0 0 0 1 0 0 0 0 1 0 0 0 0 1 0 0 0 0.5 0"/>
<feBlend mode="normal" in2="effect1_innerShadow_17_389" result="effect2_innerShadow_17_389"/>
</filter>
<filter id="filter7_ii_17_389" x="337.769" y="498.583" width="49.4394" height="63.8157" filterUnits="userSpaceOnUse" color-interpolation-filters="sRGB">
<feFlood flood-opacity="0" result="BackgroundImageFix"/>
<feBlend mode="normal" in="SourceGraphic" in2="BackgroundImageFix" result="shape"/>
<feColorMatrix in="SourceAlpha" type="matrix" values="0 0 0 0 0 0 0 0 0 0 0 0 0 0 0 0 0 0 127 0" result="hardAlpha"/>
<feOffset dy="0.621053"/>
<feGaussianBlur stdDeviation="0.621053"/>
<feComposite in2="hardAlpha" operator="arithmetic" k2="-1" k3="1"/>
<feColorMatrix type="matrix" values="0 0 0 0 1 0 0 0 0 1 0 0 0 0 1 0 0 0 0.45 0"/>
<feBlend mode="normal" in2="shape" result="effect1_innerShadow_17_389"/>
<feColorMatrix in="SourceAlpha" type="matrix" values="0 0 0 0 0 0 0 0 0 0 0 0 0 0 0 0 0 0 127 0" result="hardAlpha"/>
<feOffset dy="-0.621053"/>
<feGaussianBlur stdDeviation="0.310526"/>
<feComposite in2="hardAlpha" operator="arithmetic" k2="-1" k3="1"/>
<feColorMatrix type="matrix" values="0 0 0 0 0 0 0 0 0 0 0 0 0 0 0 0 0 0 0.25 0"/>
<feBlend mode="normal" in2="effect1_innerShadow_17_389" result="effect2_innerShadow_17_389"/>
</filter>
<radialGradient id="paint0_radial_17_389" cx="0" cy="0" r="1" gradientUnits="userSpaceOnUse" gradientTransform="translate(372.463 383.548) rotate(56.4604) scale(337.304)">
<stop stop-color="#25C1D1"/>
<stop offset="0.727903" stop-color="#FFC300"/>
</radialGradient>
<linearGradient id="paint1_linear_17_389" x1="310.508" y1="287.629" x2="419.282" y2="451.723" gradientUnits="userSpaceOnUse">
<stop stop-color="#F6C218"/>
<stop offset="1" stop-color="#1A97A4"/>
</linearGradient>
<linearGradient id="paint2_linear_17_389" x1="313.961" y1="292.906" x2="415.398" y2="445.931" gradientUnits="userSpaceOnUse">
<stop stop-color="#F6C218"/>
<stop offset="1" stop-color="#1A97A4"/>
</linearGradient>
<linearGradient id="paint3_linear_17_389" x1="313.98" y1="292.906" x2="415.417" y2="445.931" gradientUnits="userSpaceOnUse">
<stop stop-color="#F6C218"/>
<stop offset="1" stop-color="#1A97A4"/>
</linearGradient>
</defs>
</svg>
